<svg width="39" height="42" xmlns="http://www.w3.org/2000/svg"><path d="M36.819079 7.59036c-.085526 0-.12829-.08434-.12829-.25477 0-.16692.042764-.25125.12829-.25125.171053 0 .258361.08433.258361.25125 0 .17043-.087308.25477-.258361.25477zm-.256579.25301c-.085526 0-.128289-.08258-.128289-.25301 0-.16867.042763-.25477.128289-.25477.171053 0 .256579.0861.256579.25477 0 .17043-.085526.25301-.256579.25301zm-.769737 0c-.172834 0-.256579-.08258-.256579-.25301l.256579-.25477v.50778zm-.384868-.75903l.641447-.25477h.256579l-.256579.50602-.641447-.25125zm-.256579 1.64282c.171052 0 .256579-.08082.256579-.25126 0-.16867-.085527-.25477-.256579-.25477-.085527 0-.12829.0861-.12829.25477 0 .17044.042763.25126.12829.25126zm0-2.14885c0 .08434-.044545.12651-.12829.12651-.087308 0-.128289-.04217-.128289-.12651 0-.16867.040981-.25477.128289-.25477l.12829.25477zm-.256579 2.40362c.171052 0 .256579-.08434.256579-.25477 0-.16692-.085527-.25126-.256579-.25126-.085526 0-.12829.08434-.12829.25126 0 .17043.042764.25477.12829.25477zm-.256579.25301c.171053 0 .256579-.08258.256579-.25301 0-.16868-.085526-.25477-.256579-.25477-.085526 0-.12829.08609-.12829.25477 0 .17043.042764.25301.12829.25301zm0-2.1506c-.085526 0-.12829-.08434-.12829-.25477 0-.16692.042764-.25126.12829-.25126.171053 0 .256579.08434.256579.25126 0 .17043-.085526.25477-.256579.25477zm-.256579 1.64282c.171053 0 .256579-.08082.256579-.25126 0-.16867-.085526-.25477-.256579-.25477-.085526 0-.126508.0861-.126508.25477 0 .17044.040982.25126.126508.25126zM34.125 5.94403c-.171053 0-.256579-.08083-.256579-.25126L34.125 5.438v.50603zm0-1.01205c-.171053 0-.256579-.12475-.256579-.37952L34.125 4.3012v.63078zm-.384868 4.93549c.171052 0 .256579-.12651.256579-.37952l-.256579-.25301v.63253zm0-2.53188c.171052 0 .256579-.08082.256579-.25125l-.256579-.25477v.50602zm0-2.14884v-.50603c.171052 0 .256579.08434.256579.25126l-.256579.25477zm-.256579 3.79518l.641447.25301h.256579l-.641447-.75904-.256579.50603zm0-3.54393c-.085527 0-.12829-.08082-.12829-.25125 0-.16868.042763-.25477.12829-.25477.171052 0 .256579.08609.256579.25477 0 .17043-.085527.25125-.256579.25125zm0 4.42947c0-.16867-.042764-.25477-.12829-.25477l-.128289.25477c0 .08434.042763.12475.128289.12475.085526 0 .12829-.04041.12829-.12475zm-.513158.50602c.171052 0 .256579-.08433.256579-.25477 0-.16691-.085527-.25125-.256579-.25125-.085527 0-.12829.08434-.12829.25125 0 .17044.042763.25477.12829.25477zm0-.88554c.171052 0 .256579-.08434.256579-.25301 0-.16867-.085527-.25301-.256579-.25301-.085527 0-.12829.08434-.12829.25301 0 .16867.042763.25301.12829.25301zm-.513158.63077v-.63077c-.172835 0-.256579.08434-.256579.25301l.256579.37776zm0-3.03438c-.172835 0-.256579-.08434-.256579-.25477l.256579-.25126v.50603zm-.384869 3.28915c.171053 0 .256579-.08433.256579-.25477l-.256579-.25125v.50602zm-.513157-.50602l.898026-.88554h-.384869l-.513157.50602v.37952zm-.769737 1.26506c.171052 0 .256579-.08258.256579-.25301 0-.16868-.085527-.25301-.256579-.25301-.087308 0-.12829.08433-.12829.25301 0 .17043.040982.25301.12829.25301zm-.256579.25126v-.50427c-.172835 0-.256579.08434-.256579.25301l.256579.25126zm-.898027-4.0482l.256579-.25125v.25125h-.256579zm-.256579.50778c-.087308 0-.128289-.08258-.128289-.25301 0-.16867.040981-.25477.128289-.25477.171053 0 .256579.0861.256579.25477 0 .17043-.085526.25301-.256579.25301zm-.898026 24.66868v-.63429c.171053 0 .256579.0861.256579.25477l-.256579.37952zm-.256579-19.73494c.169271 0 .256579-.08434.256579-.25301 0-.16868-.087308-.25302-.256579-.25302-.085526 0-.128289.08434-.128289.25302 0 .16867.042763.25301.128289.25301zm-.256579 0l.12829.12475.128289.25477v-.12651l-.256579-.25301zm0-4.04995l.256579-.25126h.256579l-.256579.25126h-.256579zm-.769737 23.1506c-.172834 0-.256579-.08258-.256579-.25125l.256579-.25302v.50427zm0-19.35366v-.50603c-.172834 0-.256579.08434-.256579.25301l.256579.25302zm0-1.39157c-.172834 0-.256579-.08258-.256579-.25301l.256579-.25301v.50602zm-.384868 1.64458c.169271 0 .256579-.08434.256579-.25301l-.256579-.25302v.50603zm0-1.39332v-.50427c.169271 0 .256579.08434.256579.25301l-.256579.25126zm0-1.89584l.898026-.50602v.25301l-.513158.25301H26.8125zm-.256579 19.98795c-.087308 0-.128289-.08433-.128289-.25301 0-.16867.040981-.25301.128289-.25301.171053 0 .256579.08434.256579.25301 0 .16868-.085526.25301-.256579.25301zm0-16.44578c.171053 0 .256579-.08258.256579-.25301 0-.16868-.085526-.25301-.256579-.25301-.087308 0-.128289.08433-.128289.25301 0 .17043.040981.25301.128289.25301zm-.256579-1.89759c-.085526 0-.128289-.08258-.128289-.25301 0-.16868.042763-.25301.128289-.25301.169271 0 .256579.08433.256579.25301 0 .17043-.087308.25301-.256579.25301zm0-.75904c-.085526 0-.128289-.04216-.128289-.1265 0-.08258.042763-.12827.128289-.12827.169271 0 .256579.04569.256579.12827 0 .08434-.087308.1265-.256579.1265zm-.256579-3.0379l.256579-.50602h-.256579v.50602zm0 28.0861c-.087308 0-.128289-.08434-.128289-.25477 0-.16692.040981-.25126.128289-.25126.171053 0 .256579.08434.256579.25126 0 .17043-.085526.25477-.256579.25477zm-.256579-6.83133c.169271 0 .256579.12475.256579.37952l-.256579-.37952zm0-17.96385c-.085526 0-.128289-.08258-.128289-.25302 0-.16867.042763-.25477.128289-.25477.169271 0 .256579.0861.256579.25477 0 .17044-.087308.25302-.256579.25302zm-.256579-1.13856c-.087308 0-.128289-.04217-.128289-.1265 0-.08434.040981-.12651.128289-.12651.171053 0 .256579.04217.256579.12651 0 .08433-.085526.1265-.256579.1265zm0-7.08434c-.087308 0-.128289-.08433-.128289-.25476 0-.16692.040981-.25126.128289-.25126.171053 0 .256579.08434.256579.25126 0 .17043-.085526.25476-.256579.25476zm.513158 29.72892v-.25477l-.767955-.50427.767955.75904zm-.767955-28.84337v-.63429c-.174616 0-.258361.08609-.258361.25477l.258361.37952zm-.38665 27.3253c.169271 0 .256579-.12827.256579-.37952l-.256579-.25301v.63253zm.898026-2.53012c-.343887 0-.577302-.12651-.705592-.38128-.128289-.25125-.192434-.50602-.192434-.75728v-.25301c.169271.17043.363487.37952.577303.63077.212034.25477.320723.50779.320723.7608zm-.898026-24.28916c.169271 0 .256579-.08434.256579-.25477l-.256579-.25125v.50602zm0 29.09463c0-.25126-.12829-.37776-.384869-.37776 0 .25301.12829.37776.384869.37776zM24.375 11.13253c.169271-.16867.340323-.42169.513158-.75904-.343887 0-.513158.17044-.513158.50603v.25301zm0 15.05422c-.085526 0-.128289-.08434-.128289-.25477 0-.16692.042763-.25126.128289-.25126.169271 0 .256579.08434.256579.25126 0 .17043-.087308.25477-.256579.25477zm0-21c.169271 0 .256579-.08434.256579-.25477 0-.16692-.087308-.25126-.256579-.25126-.085526 0-.128289.08434-.128289.25126 0 .17043.042763.25477.128289.25477zm-.256579 27.57831c.171053.50427.42585.75904.769737.75904l-.769737-.75904zm0-2.53012c.171053 0 .256579-.08258.256579-.25301 0-.16868-.085526-.25301-.256579-.25301-.087308 0-.128289.08433-.128289.25301 0 .17043.040981.25301.128289.25301zm0-16.31928c.171053 0 .256579-.08258.256579-.25301 0-.16867-.085526-.25301-.256579-.25301-.087308 0-.128289.08434-.128289.25301 0 .17043.040981.25301.128289.25301zm-.254797 11.13253c.167489 0 .254797.12651.254797.37776l-.254797-.37776zm0 2.78314c-.087308 0-.130071-.08259-.130071-.25302 0-.16867.042763-.25477.130071-.25477.167489 0 .254797.0861.254797.25477 0 .17043-.087308.25302-.254797.25302zm0-1.13856c-.087308 0-.130071-.08434-.130071-.25301 0-.16868.042763-.25301.130071-.25301.167489 0 .254797.08433.254797.25301 0 .16867-.087308.25301-.254797.25301zm-.258361.63077c-.172834 0-.256579-.1265-.256579-.37776l.256579-.25301v.63077zm0-13.9139v-.63253c-.172834 0-.256579.08434-.256579.25301l.256579.37952zm-.384868.25301c.171052 0 .256579-.12651.256579-.38127l-.256579-.25126v.63253zm0-4.42771c.171052 0 .256579-.08258.256579-.25301l-.256579-.25477v.50778zm-.256579 5.18675c.169271 0 .256579-.08258.256579-.25302 0-.16867-.087308-.25301-.256579-.25301-.085527 0-.12829.08434-.12829.25301 0 .17044.042763.25302.12829.25302zm0 15.68499c0-.25126-.12829-.37776-.384869-.37776 0 .25301.12829.37776.384869.37776zm-.256579-5.3115c-.087308 0-.12829-.08434-.12829-.25477 0-.16692.040982-.25125.12829-.25125.171052 0 .256579.08433.256579.25125 0 .17043-.085527.25477-.256579.25477zm-.254797 2.52836c0-.25125-.087308-.37776-.258361-.37776l.258361.37776zm-.258361-15.93975h.258361v-.75728l-.258361.75728zm0 13.6644c-.085526 0-.12829-.08258-.12829-.25301 0-.16867.042764-.25477.12829-.25477.171053 0 .258361.0861.258361.25477 0 .17043-.087308.25301-.258361.25301zm-.256579-14.6747v-.50602c-.171053 0-.256579.08434-.256579.25125l.256579.25477zm-.384868 18.21687c.16927 0 .256579-.08434.256579-.25301l-.256579-.25301v.50602zm.384868-.50602c0-.16868-.128289-.25301-.384868-.25301l.384868.25301zm-.384868-1.89759c.16927 0 .256579-.08434.256579-.25477l-.256579-.25126v.50603zm0-14.42169c.16927 0 .256579-.12651.256579-.38127l-.256579-.25126v.63253zm-.256579 2.90788c.171052 0 .256579-.08258.256579-.25125 0-.16868-.085527-.25302-.256579-.25302-.087308 0-.12829.08434-.12829.25302 0 .16867.040982.25125.12829.25125zm-.254798 1.14031c.16749 0 .254798-.08258.254798-.25301 0-.16867-.087308-.25301-.254798-.25301-.087308 0-.130071.08434-.130071.25301 0 .17043.042763.25301.130071.25301zm-2.439281 17.9621c-.085527 0-.12829-.08258-.12829-.25125 0-.16868.042763-.25477.12829-.25477.171052 0 .256579.08609.256579.25477 0 .16867-.085527.25125-.256579.25125zm-.256579.38128c-.172835 0-.256579-.08434-.256579-.25302l.256579-.12826c.085526 0 .128289.0861.128289.25477 0 .08434-.042763.12651-.128289.12651zm-.641448 1.26506l.256579-1.01205v1.01205h-.256579zm-.384868.88554c.256579 0 .384868.1265.384868.37952-.256579 0-.384868-.12827-.384868-.37952zm.128289-3.28916c-.085526 0-.128289-.08258-.128289-.25301 0-.16867.042763-.25301.128289-.25301.171053 0 .256579.08434.256579.25301 0 .17043-.085526.25301-.256579.25301zm-.513157-1.89759c.171052 0 .256578-.08258.256578-.25301 0-.16867-.085526-.25301-.256578-.25301-.085527 0-.12829.08434-.12829.25301 0 .17043.042763.25301.12829.25301zm-.256579.75728v-.50427c-.171053 0-.256579.08434-.256579.25302l.256579.25125zm-.384869 8.4759v-.50602c.171053 0 .256579.08609.256579.25477l-.256579.25125zm-.256579-27.82956c.171053 0 .256579-.08258.256579-.25302 0-.16867-.085526-.25301-.256579-.25301-.085526 0-.128289.08434-.128289.25301 0 .17044.042763.25302.128289.25302zm0-1.39157c-.085526 0-.128289-.08258-.128289-.25301 0-.16868.042763-.25301.128289-.25301.171053 0 .256579.08433.256579.25301 0 .17043-.085526.25301-.256579.25301zm-.256579 20.24096c.171053 0 .256579-.04216.256579-.1265s-.085526-.12651-.256579-.12651c-.085526 0-.128289.04217-.128289.12651 0 .08434.042763.1265.128289.1265zm0-20.74698c-.085526 0-.128289-.08258-.128289-.25302 0-.16867.042763-.25477.128289-.25477.171053 0 .256579.0861.256579.25477 0 .17044-.085526.25302-.256579.25302zm-.256579 4.04643c.171053 0 .256579-.04041.256579-.12475 0-.08433-.085526-.1265-.256579-.1265-.085526 0-.128289.04217-.128289.1265 0 .08434.042763.12475.128289.12475zm0 17.83911v-.37952l-.256579-.25477.256579.63429zM15.266447 42c-.087308 0-.128289-.08434-.128289-.25477 0-.16692.040981-.25125.128289-.25125.171053 0 .256579.08433.256579.25125 0 .17043-.085526.25477-.256579.25477zm0-1.89759c-.087308 0-.128289-.04217-.128289-.12651 0-.08258.040981-.12826.128289-.12826.171053 0 .256579.04568.256579.12826 0 .08434-.085526.12651-.256579.12651zm-.256579-24.54217c.169271 0 .256579-.08434.256579-.25301 0-.16868-.087308-.25301-.256579-.25301-.085526 0-.128289.08433-.128289.25301 0 .16867.042763.25301.128289.25301zm0-1.64458c.169271 0 .256579-.08258.256579-.25301 0-.16867-.087308-.25301-.256579-.25301-.085526 0-.128289.08434-.128289.25301 0 .17043.042763.25301.128289.25301zm-.256579 27.32355c-.171052 0-.256578-.04041-.256578-.12475l.256578-.12651c.171053 0 .256579.04217.256579.12651 0 .08434-.085526.12475-.256579.12475zm0-6.57832c.171053 0 .256579-.04041.256579-.12475 0-.08433-.085526-.1265-.256579-.1265-.171052 0-.256578.04217-.256578.1265l.256578.12475zm0-19.60667v-.63253c-.171052 0-.256578.08609-.256578.25125l.256578.38128zm0-1.64458v-.63253c-.171052 0-.256578.08434-.256578.25301l.256578.37952zm-.384868-4.93374c.171053 0 .256579-.1265.256579-.37951l-.256579-.25302v.63253zm0 30.86572c.171053 0 .256579-.08258.256579-.25126l-.256579-.12826c-.085526 0-.128289.08609-.128289.25477 0 .08433.042763.12475.128289.12475zm-.256579-2.02234h.256579v-1.26682l-.256579 1.26682zm0-23.40362c.171053 0 .256579-.08258.256579-.25301 0-.16867-.085526-.25301-.256579-.25301-.085526 0-.128289.08434-.128289.25301 0 .17043.042763.25301.128289.25301zm0-1.64458v-.25301l-.256579-.25301v.25301l.256579.25301zm-.256579 24.54217c.171053 0 .256579-.08433.256579-.25477 0-.16691-.085526-.25125-.256579-.25125-.087308 0-.128289.08434-.128289.25125 0 .17044.040981.25477.128289.25477zm0-29.22289c.171053 0 .256579-.04217.256579-.1265 0-.08258-.085526-.12827-.256579-.12827-.087308 0-.128289.04569-.128289.12827 0 .08433.040981.1265.128289.1265zm-.256579 32.7633c-.085526 0-.128289-.04041-.128289-.1265 0-.08258.042763-.12475.128289-.12475.169271 0 .256579.04217.256579.12475 0 .08609-.087308.1265-.256579.1265zm0-29.22113c.169271 0 .256579-.04217.256579-.12826 0-.08258-.087308-.12475-.256579-.12475-.085526 0-.128289.04217-.128289.12475 0 .08609.042763.12826.128289.12826zm-.256579 29.85542c-.087308 0-.128289-.08434-.128289-.25477 0-.08258.040981-.12475.128289-.12475l.256579.12475c0 .17043-.085526.25477-.256579.25477zm0-4.42947c.171053 0 .256579-.08258.256579-.25125 0-.16868-.085526-.25477-.256579-.25477-.087308 0-.128289.08609-.128289.25477 0 .16867.040981.25125.128289.25125zm0-25.93197c.171053 0 .256579-.08258.256579-.25302 0-.16867-.085526-.25477-.256579-.25477-.087308 0-.128289.0861-.128289.25477 0 .17044.040981.25302.128289.25302zm-.256579 27.82956h.256579v-.25125l-.256579.25125zm0-15.81325v-.50602c-.172834 0-.256579.08609-.256579.25477l.256579.25125zm0-10.37174v-.50602c-.172834 0-.256579.08434-.256579.25301l.256579.25301zm-.384868 27.57656c.171053 0 .256579-.08258.256579-.25125l-.256579-.25477v.50602zm0-1.89759l.384868-.63077v-.25477c-.256579 0-.384868.2126-.384868.63429v.25125zm-.256579 3.28916c-.087308 0-.12829-.04041-.12829-.12475s.040982-.12651.12829-.12651c.171053 0 .256579.04217.256579.12651 0 .08434-.085526.12475-.256579.12475zm0-2.52837c.171053 0 .256579-.08433.256579-.25477 0-.16691-.085526-.25125-.256579-.25125-.087308 0-.12829.08434-.12829.25125 0 .17044.040982.25477.12829.25477zm-.256579.88555c.169271 0 .256579-.04217.256579-.12651 0-.08258-.087308-.12826-.256579-.12826-.085526 0-.128289.04568-.128289.12826 0 .08434.042763.12651.128289.12651zm0-19.7367c.169271 0 .256579-.08082.256579-.25126 0-.16867-.087308-.25477-.256579-.25477-.085526 0-.128289.0861-.128289.25477 0 .17044.042763.25126.128289.25126zm-.256579 21.12826c-.087308 0-.128289-.08434-.128289-.25477 0-.08258.040981-.12475.128289-.12475l.256579.12475c0 .17043-.085526.25477-.256579.25477zm0-17.58434c.171053 0 .256579-.08433.256579-.25476 0-.16692-.085526-.25126-.256579-.25126-.087308 0-.128289.08434-.128289.25126 0 .17043.040981.25476.128289.25476zM11.674342 21c0 .08434-.044545.12651-.128289.12651-.085527 0-.12829-.04217-.12829-.12651 0-.16867.042763-.25477.12829-.25477.083744 0 .128289.0861.128289.25477zm-.256579 20.23921c-.172834 0-.256579-.04041-.256579-.12475l.256579-.12651c.171053 0 .256579.04217.256579.12651 0 .08434-.085526.12475-.256579.12475zm-.384868-17.20482c.171052 0 .256579-.12475.256579-.37776l-.256579-.25302v.63078zm0-2.52837V21c.171052 0 .256579.08434.256579.25126l-.256579.25476zm0-13.66265c.171052 0 .256579-.08258.256579-.25301l-.256579-.25477v.50778zM9.75 25.93198c.169271 0 .256579-.08083.256579-.25126 0-.16867-.087308-.25477-.256579-.25477-.085526 0-.128289.0861-.128289.25477 0 .17043.042763.25126.128289.25126zm0-3.03439c.169271 0 .256579-.08434.256579-.25477 0-.16692-.087308-.25125-.256579-.25125-.085526 0-.128289.08433-.128289.25125 0 .17043.042763.25477.128289.25477zm0 1.89759c0-.16867-.044545-.25477-.128289-.25477-.087309 0-.12829.0861-.12829.25477 0 .08434.040981.12475.12829.12475.083744 0 .128289-.04041.128289-.12475zm-.256579 1.39157v-.50603c-.172834 0-.254797.08434-.254797.25126l.254797.25477zm-.384868-.7608c.171052 0 .256579-.12475.256579-.37776l-.256579-.25301v.63077zm-.769737 12.77887c-.085527 0-.12829-.08434-.12829-.25477 0-.16692.042763-.25125.12829-.25125.169271 0 .256579.08433.256579.25125 0 .17043-.087308.25477-.256579.25477zm0-15.05597c-.085527 0-.12829-.08083-.12829-.25126 0-.16867.042763-.25477.12829-.25477.169271 0 .256579.0861.256579.25477 0 .17043-.087308.25126-.256579.25126zm0 2.53187c0-.16867-.044545-.25477-.12829-.25477-.085526 0-.128289.0861-.128289.25477 0 .08434.042763.12475.128289.12475.083745 0 .12829-.04041.12829-.12475zm-.511376-2.27711c-.174617 0-.258361-.08433-.258361-.25476l.258361-.25126v.50602zm-.386651 2.78314c.169271 0 .256579-.08434.256579-.25477l-.256579-.25126v.50603zm-1.282894-1.89759l-.12829.12475c-.172834 0-.256579-.04042-.256579-.12475 0-.16868.083745-.25477.256579-.25477.085527.08609.12829.17043.12829.25477zm-.641448.50602c-.085526 0-.128289-.08434-.128289-.25477 0-.16692.042763-.25125.128289-.25125.169271 0 .256579.08433.256579.25125 0 .17043-.087308.25477-.256579.25477zm-1.92256 1.1368h.254797c.256579 0 .470395-.08083.641448-.25126h-.256579l-.639666.25126zm-.771519 3.29091c0-.16867-.042763-.25301-.128289-.25301-.085526 0-.12829.08434-.12829.25301 0 .08434.042764.12651.12829.12651.085526 0 .128289-.04217.128289-.12651zM23.220395.50602L24.118421 0v.75728H24.375c.340323.76079.748355 1.24573 1.21875 1.45482.468613.2126.917626.37952 1.347039.50778.42585.12651.789337.25301 1.090461.37776.29756.12826.449013.44277.449013.9488 0 .25476-.106908.6132-.320724 1.07705-.213815.46386-.449013.92771-.705592 1.39157-.256579.46386-.536321.86622-.833881 1.20005-.301124.33911-.577303.50602-.833882.50602v.7608l-.511376-.50603-.643229.75904.256579.63253.38665.25125.254797.50779-.898026 1.39156-.513158-.63428-.254797.63428c.167489.16868.318942.33735.447231.50603.12829.16867.233416.33735.320724.50602h.256579c.169271-.16867.404468-.33735.705592-.50602.299342-.16868.532758-.33735.705592-.50603h-.769737c.083745-.25301.384869-.37952.898027-.37952h.513157c.513158 0 .769737-.16867.769737-.50602l-.256579-.50602.513158.25301 2.56579-1.64458v-.25301c.427631 0 .748355-.12651.962171-.38128.212034-.25125.534539-.37952.962171-.37952l.513158.25477h.256579l.256579-.25477-.513158-.37776v.37776l-.513158-.63077.256579-.25477.513158.25477.256579-.25477-.256579-.25125.256579-.25477h.256579l.641447.25477-.641447.75903H34.125l.769737-.75903c.171052.33735.299342.65361.384868.94879.085527.29694.340324.44277.769737.44277v-.25477c.427632 0 .684211-.14583.769737-.44277.083744-.29342.470395-.44277 1.154605-.44277.171053 0 .384869.19152.641448.57104.256579.37951.384868.65361.384868.82053 0 .50778-.213816 1.07706-.641447 1.70959-.429414.63077-.919408 1.24397-1.475329 1.83433-.555921.59037-1.154606 1.13856-1.796053 1.64458-.641447.50603-1.175987.88554-1.603618 1.13856h-.256579c-.429414.33735-1.113624.90662-2.052632 1.70783-.940789.80296-1.924342 1.60241-2.950658 2.40361-1.026316.80121-2.033032 1.49699-3.014802 2.0856-.983553.59211-1.731908.88554-2.245066.88554v.25477h-.511376c0 .42168-.151453.78012-.450795 1.0753-.299342.29518-.449013.65361-.449013 1.07354.427631.4252.8125 1.05598 1.154605 1.89935v-.75904l.513158.50603c0 .08433-.042763.21084-.12829.37952-.085526.16867-.128289.29693-.128289.37951 0 .42345.340323 1.05422 1.026316 1.89759.68421.84338 1.197368 1.43374 1.539473 1.77109l-.254797.25301c.167489.33735.466831.59036.896245.75904.427631.16867.641447.46385.641447.88554-.085526-.08258-.172834-.08258-.256579 0-.087308.08434-.087308.16867 0 .25301l.256579.50427v.25477l-2.694079-2.65663h-.254797c.595121.59036 1.12966 1.15964 1.601837 1.70783.470394.54819.919407 1.15964 1.347039 1.83434h-.256579l-1.026316-1.14031h-.254797c.254797.17219.447231.38127.575521.63428.128289.25302.276179.50603.449013.75728l-.769737-.50426h-.254797v.50426l.767955 1.14031v.25126c-.172834.25477-.365268.52887-.577302.82405-.213816.29518-.491777.44277-.833882.44277-.855263 0-1.603618-.20909-2.245066-.63253-.641447-.42169-1.21875-.9488-1.731908-1.58309-.513158-.63077-1.024534-1.28263-1.539473-1.95908-.513158-.6747-1.070861-1.26682-1.667764-1.77109v.12475c0 .59212-.256579 1.41441-.769736 2.46863-.513158 1.05421-.898027 1.83433-1.154606 2.34036 0 .42169-.128289.78012-.384868 1.0753-.256579.29518-.301124.65361-.12829 1.07354-.343887 0-.621847-.16691-.833881-.50602-.213816-.33384-.408032-.63077-.577303-.88554v.25477c0 .25125.085527.46385.256579.63077.171053.17043.171053.4252 0 .76079l.256579-.25477.641447.25477v1.39157c-.342105-.25477-.620065-.37952-.833881-.37952-.215598 0-.320724-.25301-.320724-.76079l-.898026 1.64633-.256579-.50602-.256579.25125-.513158-.75727c-.256579.16867-.493558.48494-.705592.94879-.213816.46561-.365269.86446-.449013 1.20005h-.256579c-.513158 0-.962171-.188-1.34704-.56928-.384868-.37951-.577302-.82229-.577302-1.32831 0-1.68499.363487-3.2259 1.09046-4.61747.725192-1.39157 1.090461-2.92897 1.090461-4.61571-1.455729.75903-2.738624 1.39156-3.848684 1.89759-1.111842.50602-2.480264.75728-4.105264.75728-.256578-.16516-.470394-.37952-.641447-.63078-.172834-.25476-.342105-.50602-.513158-.76079 0-.41993.040982-.82229.12829-1.20005.083744-.37952.212034-.78012.384868-1.20181-.256579-.25301-.641447-.5271-1.154605-.82404C.256579 28.35843 0 28 0 27.57831c0-.50602.171053-.8012.513158-.88554l-.256579-.25301c.427632-.6747 1.347039-1.07706 2.758224-1.20181 1.411184-.1265 2.457099-.18976 3.143092-.18976.340323 0 .513158-.16867.513158-.50778l-.254798-.50602.254798-.25126h.256579l.256579.25126h.256578c.684211-.25126 1.23835-.54644 1.667764-.88554V22.1368h.384868l.513158.25477h.256579l1.924342-1.14031V21c0-1.60065-.575521-3.24699-1.731908-4.93549-1.154605-1.68499-2.033032-3.24348-2.628152-4.68072v-.25126c-.431195-.84337-.771519-1.51983-1.028098-2.02585-.256579-.50603-.383087-1.26331-.383087-2.27711.16749-.16692.383087-.33559.639666-.50603.256579-.16691.384868-.37951.384868-.63077h2.56579l.513158.88554V6.1988c0-.42169.147889-.92772.449013-1.51808.299342-.5886.705592-.88554 1.21875-.88554s.917626.188 1.21875.56928c.29756.37952.555921.84337.769737 1.39156.212034.54995.384868 1.09639.513158 1.64458.128289.5482.235197.99097.320723 1.32656h-.641447v.76079l.384868.12475.513158-.37776.256579.63253-.256579.25125v.25477c0 .33735.0196.65362.064145.9488.042763.29518.277961.44277.705592.44277l.641448-.38127c.171052-.58861.468613-1.49524.898026-2.71988.42585-1.22114.917626-2.46511 1.475329-3.73193.555921-1.26331 1.154605-2.35793 1.796052-3.28916.641448-.92595 1.261514-1.39156 1.860198-1.39156l.513158.25476z" fill="#6515DD" fill-rule="evenodd"/></svg>