<svg xmlns="http://www.w3.org/2000/svg" viewBox="0 0 181.08 19.76"><g data-name="Layer 2"><g data-name="Layer 1"><path d="M161.7 4.43v.07l.24-.17h-.16c-.1 0-.09.05-.08.1zM161.78 3.33h-.14v.09a.15.15 0 00.11.11zM161.48 4.43c0 .05.06.05.15 0v-.07h-.09a.06.06 0 00-.06.07zM161.56 4.02l-.41-.08-.14.04.44.15.11-.11zM162.19 4.94l-.2.07.11.12.09-.19zM162.39 4.42l-.37.05.01.23.36-.28zM159.81 4.25v.07l.28-.1a.13.13 0 00-.19-.08c-.07.03-.11.07-.09.11zM159.79 3.11l-.18-.11c-.05 0-.08 0-.09.07a.11.11 0 01-.09.07l.11.12zM159.5 4.67v.06l.25-.16s-.07-.05-.16 0-.11.05-.09.1zM159.82 4.93v-.22s-.05.09 0 .22zM159.26 3.99l.66-.08-.12-.12-.54-.03v.23zM161.12 4.94V5l.25-.16h-.16c-.09 0-.11.05-.09.1zM159.1 3.74l-.2.3a.83.83 0 00.2-.3zM159.22 3.12a.13.13 0 00.12 0v-.16c0-.09-.07 0-.16 0s-.13.07-.11.12v.06a.2.2 0 01.15-.02zM162.13 4.12a.13.13 0 00.09-.18.13.13 0 00-.09.18zM160.45 3l-.25.17c.19-.04.27-.09.25-.17zM161.34 4.25a.2.2 0 00-.14.28.2.2 0 00.14-.28zM160.15 4.36l.12.11a.36.36 0 01.22-.34 1.24 1.24 0 00.34-.24 1.4 1.4 0 00-.52 0l-.21.11.12.11zM160.56 4.44s.07.06.16 0 .13-.06.12-.11v-.07zM162.26 3.39c.09 0 .12-.07.11-.11v-.07l-.24.16s.04.06.13.02zM165 5.56c.09 0 .13-.07.11-.11v-.07l-.25.16s.05.05.14.02zM159 3.17a.07.07 0 00.05-.09L159 3h-.09s-.05.07 0 .16zM164 5.3l.07-.25a.48.48 0 00-.07.25zM164 4.3s.06-.07 0-.16h-.09s-.06 0 0 .09v.07s.09.02.09 0zM163.88 5.65v.06l.25-.16h-.16c-.09 0-.1.05-.09.1zM163.27 4.11l-.14.05.25.06-.11-.11zM164.59 4c.09 0 .13-.07.11-.11v-.07l-.25.16s.05.02.14.02zM164.62 4.47a.19.19 0 00.13-.27.18.18 0 00-.13.27zM152.36 2.59a.13.13 0 00-.09.18.13.13 0 00.09-.18zM164.56 5.41v-.07h-.09s-.06 0 0 .09 0 .01.09-.02zM163 4a.18.18 0 00-.13.27A.18.18 0 00163 4zM162.86 4a.13.13 0 00-.19-.09.13.13 0 00-.08.19zM163.35 4.77h.13v-.28h-.3l-.06.25a.11.11 0 01.11 0 .24.24 0 00.12.03zM164.74 5.27c-.09 0-.12.07-.11.12v.06l.24-.16s-.04-.05-.13-.02zM162.36 4.12h.09c.05 0 .06 0 0-.1v-.06h-.09s-.03.04 0 .16zM165.18 3.9l-.25-.07-.14.05.18.09.21-.07zM162.61 4.41a.34.34 0 00-.18.14h.16a.26.26 0 00.18-.14s-.07-.03-.16 0zM162.89 4.77c.14 0 .19-.11.16-.2a.07.07 0 00-.09-.05.43.43 0 00-.23.23s.07.06.16.02zM165.9 4.64V4.5s0-.06-.09 0-.06.07 0 .16 0 .01.09-.02zM153.52 2.64l-.24.16.27-.09-.03-.07zM153.27 2.57a.2.2 0 00-.13.28.19.19 0 00.13-.28zM151.46 3.06l-.25-.07-.14.05.18.09.21-.07zM151.37 3.47c-.09 0-.12.07-.11.11v.07l.25-.16c.01-.05-.05-.05-.14-.02zM151.41 2.69l.24-.16c-.18.06-.26.12-.24.16zM150.97 2.54l-.41-.08-.11.11.41.09.11-.12zM155.88 3.49a.29.29 0 00-.32 0h-.07l.19.32zM153.26 3.42l.32.04.34-.12-.73-.13.07.21zM153.77 2.7h.1s.06 0 0-.09-.09-.13-.18-.09v.06zM152.44 3.48l.32.04-.16-.25-.16.21zM152.07 2.62l-.16-.02-.21.07.25.06.12-.11zM152.66 2.79c.09 0 .13-.07.11-.12V2.6l-.25.17s.05.05.14.02zM150.71 3.09l.13-.05-.18-.08-.14.04.19.09zM151.75 3l-.24.16c.18-.03.26-.08.24-.16zM152.28 3.23a.19.19 0 01.16 0 .13.13 0 00.09-.19h-.14c-.09.1-.13.14-.11.19zM158.87 3.74v-.07c0-.09-.06-.12-.11-.11s0 .07 0 .16zM165.4 5.19c.08.23.21.31.39.25h.07l.09-.18h-.27zM152.91 2.62a.14.14 0 00-.09.19.13.13 0 00.09-.19zM151.87 3.14l.18.09.11-.12-.18-.08-.11.11zM153.29 3.71h-.16c-.09 0-.13.07-.11.12v.07zM150.16 3.05h.16v-.06c0-.09-.07-.13-.12-.12s-.07.13-.04.18zM157.92 3.77a3 3 0 01.43 0h.13a1.1 1.1 0 00-1-.12h-.13l.16.25a.55.55 0 01.41-.13zM158.11 4.85h.09c.05 0 .06-.07 0-.16h-.09s-.03.07 0 .16zM157.47 4.76c.09 0 .13-.06.11-.11v-.07l-.25.16s.05.06.14.02zM158.27 4.87h.16a.34.34 0 00.18-.14h-.16a.3.3 0 00-.18.14zM157.81 4.65l-.13.04.18.09-.05-.13zM158.45 2.97l-.25.17.3-.03-.05-.14zM157.9 2.94s-.07-.06-.16 0-.13.07-.11.11v.07zM158 3.21c.09 0 .12-.07.11-.12v-.07l-.24.17s.04.05.13.02zM157.55 4.13c-.09 0-.12.07-.11.11v.07l.24-.16c.02-.05-.04-.06-.13-.02zM157.34 3.51h-.16c-.09 0-.19.12-.16.21a.07.07 0 00.1 0 .44.44 0 00.22-.21zM156.99 2.95l-.41-.08-.14.04.44.16.11-.12zM156.33 2.8l-.25.16c.18-.06.26-.11.25-.16zM156.18 3.46l-.25.17c.18-.07.26-.12.25-.17zM156.35 4.62l.12-.11a4.63 4.63 0 00.09-.49 3.83 3.83 0 000-.47l-.18-.09a1.82 1.82 0 00-.06.59.56.56 0 01-.25.51zM157.07 4.06a.2.2 0 00-.13.28.19.19 0 00.13-.28zM149.85 3.7a.19.19 0 00.13-.28.2.2 0 00-.13.28zM157 4.54l-.24.17c.24-.07.24-.12.24-.17z"/><path d="M156.89 3.75v.16s0 .06.09 0a.3.3 0 00.18-.14c-.05-.05-.16-.07-.27-.02zM176.74 5.11L177 5c-.19 0-.27.07-.26.11zM176.87 6.36a.29.29 0 00.19-.14h-.16a.25.25 0 00-.18.14s.06.03.15 0zM177 7.25a.2.2 0 00.13-.28.19.19 0 00-.13.28zM176.43 7.39a1.38 1.38 0 010 .28l.4-.6h-.37c-.02.16-.03.25-.03.32zM177.22 5.17a.11.11 0 00.09-.07.22.22 0 01.09-.1l-.05-.13-.31.18a.13.13 0 00.18.12zM178.15 8.05c-.06 0-.11-.11-.16-.25a.3.3 0 010-.23l-.2.53zM178.03 7.25l-.09.19.15-.21-.06.02zM177.48 7.22l.25-.17h-.16c-.09 0-.13.07-.11.12zM177.1 6.36a.13.13 0 01.12 0 .15.15 0 00.11 0h.14l-.26-.07zM176.76 6.48a.13.13 0 00-.09.18c.1-.03.12-.09.09-.18zM175.6 4.9v.16c0 .09.07.05.16 0s.06 0 0-.09a.13.13 0 00-.16-.07zM175.36 5.75v.13h.09a.07.07 0 00.05-.09c.01-.05-.05-.08-.14-.04zM176.35 6.39c.09 0 .13-.07.11-.11v-.07l-.27.09a.13.13 0 00.16.09zM175.28 5.09l.25-.17c-.18.08-.26.08-.25.17zM176.08 5l-.25.16c.17-.1.26-.16.25-.16zM176 7.22v-.39l-.28.71.29.2-.2.07a.34.34 0 01-.15 0 .26.26 0 00-.15 0l-.11.11a1.43 1.43 0 00.78 0h.07l-.05-.13.06-.48zM175.36 7.04l.16.03.13-.05-.18-.09-.11.11zM175.87 5.88v-.07l-.25.16h.16c.09 0 .1-.05.09-.09zM176 6.22v.06l.25-.16h-.16c-.09 0-.09.05-.09.1zM175.73 4.63s-.07-.06-.16 0-.13.08-.11.12v.07zM179.76 8.71q.19-.08.15-.21a.26.26 0 00-.11.12zM180.08 5.93v-.07c0-.09-.07-.13-.11-.12s-.05.07 0 .17zM179.55 10.31a.28.28 0 00-.18.13 1.27 1.27 0 00.59 0h.07a.46.46 0 00-.48-.13zM179.72 8a.19.19 0 00.13-.28.2.2 0 00-.13.28zM177.76 6.28l-.11.11.66.15-.55-.26zM181.07 10.92a.2.2 0 00-.14.28.2.2 0 00.14-.28zM180.38 9.18c.09 0 .13-.07.11-.12v-.07l-.25.17s.05.05.14.02zM180.15 7.88c.1 0 .13-.07.12-.11V7.7l-.25.16s.04.05.13.02zM180.24 10.3c-.09 0-.13.07-.12.11v.07l.25-.16c.01-.05-.04-.06-.13-.02zM179.78 5.73c-.14 0-.18.13-.13.27a.19.19 0 00.13-.27zM178.53 7.61c.09 0 .13-.07.11-.11v-.07l-.25.16s.05.05.14.02zM178.91 5.19c0-.09-.07-.13-.12-.11a.3.3 0 00-.18.14.11.11 0 01.11 0 .38.38 0 00.19-.03zM178.51 5.79s.05-.07 0-.16h-.1s-.06 0 0 .09v.07a.07.07 0 00.1 0zM177.93 5.34a.11.11 0 00.11 0c.05 0 .06-.07 0-.16s-.06 0-.16 0-.12.07-.11.12v.06zM179.33 6.19a.19.19 0 00-.13.27.18.18 0 00.13-.27zM178.47 6.56l.66.15.14-.04-.59-.18-.21.07zM178.71 5.72l.66.15.14-.05-.67-.15-.13.05zM179.47 8.12v.07l.25-.16s-.07-.06-.16 0-.1.05-.09.09zM171.36 5.85a.2.2 0 00-.14.28.2.2 0 00.14-.28zM168.77 4.78a.19.19 0 01.16 0 .13.13 0 00.08-.19h-.13c-.09.1-.13.14-.11.19zM168.58 6l.09-.19-.14-.18-.66-.15-.12.12.42.2zM169.65 4.69c-.09 0-.12.07-.11.12v.07l.24-.16s-.03-.06-.13-.03zM169.33 5.72h-.16c-.09 0-.13.07-.11.12v.07zM168.73 5.1a.19.19 0 00-.14.27.19.19 0 00.14-.27zM169.56 4.65l-.25.16c.19-.06.27-.11.25-.16zM169.6 5.86v.06s0 .06.09 0 .05-.07 0-.16h-.09a.07.07 0 000 .1zM169.4 4.4h-.3l.05.14v.16l.07-.05zM169.2 4.93a.43.43 0 000-.2l-.11.09zM175.51 6.38h-.16c-.09 0-.13.07-.11.12v.06zM168.68 6.26c.09 0 .12-.07.11-.12v-.07l-.24.17s.04.05.13.02zM167.29 5.14l-.04-.14-.19-.08.05.13.18.09zM166.33 5s.07.05.16 0 .13-.07.12-.12v-.07a.14.14 0 01-.11 0 .13.13 0 00-.12 0s-.08.12-.05.19zM167.24 4.55a.07.07 0 00-.05.09c0 .05.07.05.16 0v-.07zM166.62 4.08h.06v-.14a4.2 4.2 0 00-.61-.09 1.38 1.38 0 00-.56 0h-.13a1.39 1.39 0 001.24.23zM167.54 3.68l-.25.16.28-.09-.03-.07zM167.29 3.61a.2.2 0 00-.13.28.19.19 0 00.13-.28zM167.46 5.62l.11-.12-.25-.07-.11.12.25.07zM167.86 4.79l.2-.3a.32.32 0 01.36-.16h.43V4.2l-1.57-.14h-.14l.71.29zM167.93 5v-.06l-.24.16h.16c.09 0 .09-.1.08-.1zM173.55 6.23h.07v.06l.25-.16s-.07-.05-.16 0a.14.14 0 00-.07 0v-.06l-.25.16s.07.03.16 0zM173.2 6.12h.1s.06 0 0-.09a.13.13 0 00-.18-.09v.07zM172.68 4.63a.43.43 0 00.25-.17.35.35 0 01-.18 0h-.32c.03.19.12.21.25.17zM172.29 6.14l.25-.17c-.18.03-.26.12-.25.17zM172.29 4.38a.19.19 0 00-.13.28.2.2 0 00.13-.28zM170.37 5.43c0 .05.07.06.16 0s.19-.11.16-.2a.07.07 0 00-.1 0 .45.45 0 00-.22.2zM173.73 4.56h-.07v.23c.09-.01.12-.09.07-.23zM175.17 4.97l-.18-.08-.14.04.18.09.14-.05zM174 6.29a.19.19 0 00.13-.27c-.13.04-.13.13-.13.27zM174.46 4.69l-.07-.2h-.37l-.11.11a1.42 1.42 0 00.27 0zM171.72 4.28s-.07-.06-.16 0-.13.07-.11.11v.07zM166.51 4.42a.19.19 0 00-.13.28.2.2 0 00.13-.28zM170.52 5l.2-.3.44.15v-.36a.6.6 0 00-.63-.27 2.91 2.91 0 00-.72.13l-.11.12.85.23zM171.15 5.7l-.2.3.13-.05.07-.25zM172.36 4.81l-.24.17c.18-.07.26-.12.24-.17zM171.93 4.89h.14l-.43-.15-.07.25a.35.35 0 01.18 0s.09-.07.18-.1zM171.54 6.17l.21-.07-.25-.07.04.14zM171.81 4.55c.1 0 .13-.07.12-.12v-.07l-.24.17s.03.05.12.02zM179.32 5.28c.09 0 .13-.07.11-.12v-.07l-.25.17s.05.05.14.02zM139.31 2.12h.13A1.14 1.14 0 00139 2a1.39 1.39 0 00-.48.05l.14.18zM139.68 2.53a.19.19 0 00-.14.27.19.19 0 00.14-.27zM142.43 2.33c.06 0 .08 0 0-.09l-.18-.09v.16zM138.35 2l-.25-.06-.14.05.19.08.2-.07zM136.44 2.44s0-.06-.09 0a.19.19 0 00-.11.11.15.15 0 00.11.11zM139.85 1.93c.09 0 .13-.07.11-.11v-.07l-.25.16c0 .09.05.09.14.02zM142.34 2.51s-.05.07 0 .16.07.05.16 0v-.13c-.08-.03-.11-.04-.16-.03zM142 2.33l.25-.16c-.25.06-.25.12-.25.16zM141.92 2c0 .12-.08.21-.06.25s.14-.14.06-.25zM154.93 4.05l-.3-.2.64-.37a1.21 1.21 0 00-1-.12h-.14a1 1 0 01.21.39.64.64 0 01.06.24l.36.07zM140.08 2.16v.07l.24-.17s-.07-.05-.16 0-.09.05-.08.1zM141.89 2.75h.07c-.16-.15-.3-.2-.44-.15a.26.26 0 00.37.15z"/><path d="M140.1 1.77a.13.13 0 00-.1.23.14.14 0 00.1-.23zM138.65 2.66c.1 0 .13-.07.12-.12v-.07l-.24.17s.03.05.12.02zM116.84 2.82c-.19-.16-.34-.17-.44 0s-.06.27.13.42.33.18.43.05.04-.29-.12-.47zM164.88 8.06s-.06 0 0 .08.06 0 .05-.08zM174 8.77a.14.14 0 000 .13s.06-.05.05-.08zM135.23 2l-.25.16c.18-.03.26-.09.25-.16zM177.63 7.85h-.11zM163.94 4.94l-.25.16c.19-.1.31-.1.25-.16zM175.26 7.84l-.03-.06-.24.16.27-.1zM137.31 2.52c.09 0 .13-.07.11-.12v-.06l-.25.16s.05.05.14.02zM145 4.48h.16c.09 0 .19-.12.16-.21a.07.07 0 00-.09 0 .45.45 0 00-.23.21zM154.44 4h-.05v.11a.26.26 0 00.05-.11zM142.75 2.37s.06-.05 0-.09v-.07h-.09c-.05 0-.05.06 0 .15zM149.58 3.56l.27-.09c0-.09-.08-.11-.14-.07a.48.48 0 00-.13.16zM150.06 2.55h.14l-.2-.11-.12.12a.13.13 0 01.12 0 .14.14 0 00.06-.01zM148.66 2.9l.18.08.11-.11-.18-.09-.11.12zM150.11 4.22l.11-.12h-.29l-.32.18a1.24 1.24 0 00.5-.06zM147.37 3.8l-.15.66.2-.29c.34.08.68.15 1 .21a9 9 0 011 .21v-.36a1.26 1.26 0 00-.69-.22L148 4v-.32a1.66 1.66 0 01-.31.22.23.23 0 01-.32-.1zm.55 0l-.25.16s.07-.06.25-.12zM148.47 2.58s.06-.05 0-.09v-.07a.07.07 0 00-.09 0c-.05 0-.06.07 0 .16zM148.6 3.6s.05-.07 0-.16-.07 0-.16 0 .11.18.16.16zM148.6 2.53l.25-.16c-.18.06-.26.12-.25.16zM148.2 3.13l-.25.16c.19-.06.27-.12.25-.16z"/><path d="M149.57 3.34a.19.19 0 00-.13.27.18.18 0 00.13-.27zM149.4 2.4l-.25.17c.18-.07.26-.12.25-.17zM149.2 2.93a.19.19 0 00.28.13l.27-.09-.44-.15zM149.51 2.52h.1a.06.06 0 000-.09.13.13 0 00-.18-.09v.07zM150 2.87a.19.19 0 00-.13.28.2.2 0 00.13-.28zM147.07 2.3a.13.13 0 00-.08.19.13.13 0 00.08-.19zM144.73 2.13a.49.49 0 00-.07.26c.09-.04.11-.12.07-.26zM145.82 2.44a.36.36 0 00-.41-.2.68.68 0 01-.43 0l-.09.18a1 1 0 00.93.02zM148 2.45h.07v.06a.2.2 0 01.11 0 .11.11 0 00.11 0c.05 0 .06-.07 0-.16s-.06-.05-.16 0h-.07a.19.19 0 01-.16 0 .14.14 0 00-.09.19zM143 2.32a.2.2 0 00.11 0v-.16c0-.09-.07-.05-.16 0s-.13.07-.11.11v.07zM146.35 2.41h-.14c-.09 0-.13.07-.11.12a.19.19 0 01.16 0 .13.13 0 00.09-.12zM143.67 2.81a3.81 3.81 0 01.54 0l.12-.12-.46-.22-.05-.36a2.45 2.45 0 01-.7.62 3.94 3.94 0 00.55.08zM146.2 3.07h.13v-.13L146 3c0 .1.06.12.2.07zM147.28 2.46l.25-.16c-.18.06-.26.11-.25.16zM147.68 3.5a.13.13 0 00.12 0v-.16c0-.09-.07 0-.16 0s-.13.07-.11.11v.07zM148.17 3.9l.25-.16s-.07-.05-.16 0-.13.07-.11.12zM149.26 4c.18-.07.27-.12.25-.17zM146.61 2.93a.19.19 0 00-.14.27.19.19 0 00.14-.27zM146.64 2.38a.14.14 0 00.07 0v.07l.25-.16h-.23v-.07l-.25.17s.07.02.16-.01zM30 2.56l-.05-.05h-.43l.46.38a.13.13 0 00-.08.18h.16c.09 0 .13-.07.11-.12a.09.09 0 00-.06-.07.17.17 0 000-.07.1.1 0 000 .05.21.21 0 00.34 0 .22.22 0 000-.34c-.19-.15-.33-.17-.44 0s-.01-.01-.01.04zM39.37 2.24a.22.22 0 000-.34c-.19-.16-.34-.17-.44 0s-.06.27.13.42a.21.21 0 00.31-.08zM41.16 2l-.47-.39c-.1.13-.06.26.13.42zM42.3 2.14a.22.22 0 000-.34c-.19-.16-.34-.17-.44-.05s-.06.27.12.42a.22.22 0 00.32-.03zM44.5 3.49L44 3.1c-.11.13-.06.27.12.42zM43.17 4.13a.21.21 0 000-.34c-.19-.15-.33-.17-.43 0s-.07.26.12.42a.21.21 0 00.31-.08zM43.28 2v.06h.35l-.47-.38a.19.19 0 000 .15v-.06l-.43-.05.56.47a.21.21 0 00-.01-.19zM41.56 1.69h-.43l.47.31a.21.21 0 00-.04-.31zM33.34 3.41L32.87 3c-.1.12-.06.26.13.42zM32.82 5.18c.1-.12.06-.26-.13-.42h-.44zM36.16 3.06L35.73 3l.56.47c.1-.12.06-.26-.13-.41zM33.83 3.32h.43l-.56-.46a.2.2 0 000 .16h-.38l.47.39a.24.24 0 00.04-.09zM35.3 2.19c.11-.13.06-.27-.12-.42s-.34-.17-.44-.05-.06.27.13.42.33.17.43.05zM35 3.48a.22.22 0 00.35 0 .27.27 0 00.06-.16.45.45 0 00.11.14h.34L35.38 3a.24.24 0 000 .16V3.1c0-.06-.38-.1-.51-.01a.18.18 0 000 .17h-.38l.47.39a.43.43 0 00.04-.17zM94.27 5c-.17-.11-.3-.13-.39 0s-.06.27.13.42a.21.21 0 00.34 0 .35.35 0 00.05-.13h.35l-.47-.39a.14.14 0 00-.01.1zM94.74 4.87l.46.39a.21.21 0 000-.34zM87.3 6.31a.34.34 0 00.07.15v-.12s-.05-.02-.07-.03zM44.54 2.11h-.44l.47.39a.22.22 0 00-.03-.39zM82.15 4.13a.21.21 0 00-.27 0v.09zM37.24 6.33l.47.38a.22.22 0 000-.34zM42 6.63a.24.24 0 00.06.15v-.12S42 6.65 42 6.63zM36.93 6.7h.34l-.46-.39q-.16.17.12.39zM46.48 5.78a.24.24 0 00.06.15v-.12s-.05-.01-.06-.03zM61.46 3.82l-.56-.47c-.11.13-.06.27.12.42zM85.25 3.16v-.34a.1.1 0 00-.17 0 .21.21 0 000 .34c.06.07.11.07.17 0zM83.17 2.23l-.46-.39c-.11.13-.07.27.12.43zM83 2.79a.45.45 0 00.11.14.22.22 0 00.35 0 .22.22 0 000-.34c-.19-.16-.34-.17-.44-.05a.24.24 0 000 .16v-.06h-.43l.46.39a.22.22 0 00-.05-.24zM86.28 4l-.47-.39c-.11.13-.06.26.12.42zM87.77 4.31h.34l-.46-.39q-.16.16.12.39zM82.55 3l-.47-.39c-.1.13-.06.27.13.42zM87.09 3a.42.42 0 00.15.25.32.32 0 000-.52.48.48 0 00-.08.16.31.31 0 00-.16-.15l-.43-.05.46.39a.18.18 0 00.06-.08zM78.83 2.9a.43.43 0 000-.13l.43.05-.56-.47a.21.21 0 000 .17h-.38zM76.32 2.87a.23.23 0 00.06-.16.45.45 0 00.11.14h.34l-.46-.39a.17.17 0 000 .16v-.06c-.19-.16-.34-.17-.44 0s-.06.27.13.42a.22.22 0 00.26-.11zM74.43 2.09L74 1.71q-.16.18.12.42zM79.93 2.71h-.43l.47.39a.21.21 0 00-.04-.39zM71.78 2.43c-.1.12-.06.26.13.42a.22.22 0 00.34 0 .2.2 0 000-.13h.44l-.56-.47a.21.21 0 000 .15c-.13-.07-.25-.09-.35.03zM78.14 2.12a.6.6 0 00.11.14h.34l-.47-.39a.18.18 0 000 .16v-.07h-.44l.47.38a.24.24 0 00-.01-.22zM88 2.91l-.47-.39c-.11.13-.06.26.12.42zM100 3.09h-.43l.46.39a.21.21 0 00-.03-.39zM107.84 3.08a.21.21 0 00.34 0 .21.21 0 000-.34c-.19-.16-.33-.17-.44 0a.27.27 0 000 .15l-.44-.05.56.47a.21.21 0 00-.02-.23zM113.55 3.24a.21.21 0 00.34 0 .2.2 0 00.11-.14.48.48 0 00.11.15h.34l-.45-.42a.15.15 0 000 .17v-.06c-.19-.16-.33-.17-.44 0a.21.21 0 000 .15l-.56-.17.56.47a.17.17 0 00-.01-.15zM109 3.29l-.56-.47q-.17.2.12.42zM109.42 3.1a.6.6 0 00.11.14.22.22 0 00.34 0 .2.2 0 000-.13h.34l-.46-.39a.21.21 0 000 .15c-.16-.12-.29-.13-.38 0a.16.16 0 000 .16v-.07h-.44l.47.39a.23.23 0 00.02-.25zM114.89 3.26q.11-.18.11-.26h-.34c0 .06 0 .14.11.25a.11.11 0 00.12.01zM115.59 3.37a.27.27 0 000-.13h.34l-.47-.39a.27.27 0 000 .15c-.16-.12-.29-.13-.39 0s-.06.26.13.42a.22.22 0 00.39-.05zM71.45 3.72c.18.16.33.17.43 0s.07-.27-.12-.42-.34-.17-.44 0a.25.25 0 000 .17h-.38l.47.38a.21.21 0 00.04-.13zM106.91 3.07a.45.45 0 00.11.14h.35l-.47-.39a.24.24 0 000 .16v-.06l-.44-.05.47.39a.23.23 0 00-.02-.19zM95.46 2.47l-.23.28.52-.04-.29-.24zM97.54 3.4a.24.24 0 00.06-.15.6.6 0 00.11.14h.34L97.58 3a.18.18 0 000 .16v-.07c-.19-.15-.34-.17-.44 0s-.06.26.12.41a.22.22 0 00.28-.1zM96.42 2.78a.21.21 0 00.34 0 .22.22 0 000-.34c-.19-.16-.34-.17-.44 0a.22.22 0 000 .17h-.38l.47.39a.43.43 0 00.01-.22zM45.27 2.56a.23.23 0 00.06-.16.45.45 0 00.11.14h.35l-.47-.39a.23.23 0 000 .16v-.07c-.19-.15-.33-.17-.44 0s-.06.26.13.42a.22.22 0 00.26-.1zM90.7 2.62c.19.16.33.18.43.05a.21.21 0 000-.15v.06h.34l-.46-.38a.18.18 0 000 .14v-.05c-.19-.16-.33-.17-.44 0a.27.27 0 000 .17h-.38l.47.39a.27.27 0 00.04-.23zM98.72 3.12l-.56-.47.05.52.51-.05zM54.48 3.08a.21.21 0 00.05-.08H55l-.56-.46a.19.19 0 000 .14c-.16-.11-.29-.13-.39 0s-.06.26.13.42a.21.21 0 00.3-.02zM52.38 3.71h.34l-.47-.39c-.1.1-.06.24.13.39zM53.13 3.38h-.44l.47.39a.23.23 0 00-.03-.39zM53.73 2.46a.22.22 0 000-.34c-.19-.16-.33-.17-.44-.05s-.06.27.13.42a.21.21 0 00.31-.03zM56 2.1a.6.6 0 00.11.14h.34L56 1.82A.18.18 0 0056 2v-.07h-.44l.47.38A.24.24 0 0056 2.1zM55.61 2.29l-.56-.47c-.1.13-.06.27.13.42zM52.59 2.31l-.46-.39q-.16.19.12.42zM49 2.3c.11-.12.13-.21.07-.26h-.35c0 .06 0 .14.11.25a.11.11 0 00.17.01zM49.67 2.41L49.2 2c-.11.13-.06.26.12.42zM48.25 2.02l-.19-.15-1.37.12.19.16 1.37-.13zM56.78 1.83h-.43l.56.46c.09-.16.09-.29-.13-.46zM50.52 2.33l-.28-.24-.42.13.19.16.51-.05zM51.61 1.97l-.42.12-.15.19.85-.08-.28-.23zM58.43 1.94L58 1.89l.47.39a.21.21 0 00-.04-.34zM69.48 2.08a.22.22 0 00.34 0 .23.23 0 00.06-.16.45.45 0 00.11.14h.35l-.47-.39a.24.24 0 000 .16.17.17 0 000-.07c-.19-.15-.33-.17-.43 0a.17.17 0 000 .16h-.39l.47.39a.17.17 0 00-.04-.23zM69.4 2.82h.35l-.47-.39c-.11.1-.06.23.12.39zM70.68 1.66h-.44l.56.47c.11-.13.07-.31-.12-.47zM70.61 2.43v-.06c-.19-.16-.33-.17-.44-.05a.21.21 0 000 .15v-.06h-.44l.56.47a.21.21 0 000-.15v.05a.22.22 0 00.34 0 .23.23 0 00.06-.16.45.45 0 00.11.14h.35l-.47-.39a.24.24 0 00-.07.06zM57.61 2.36a.24.24 0 000-.13h.43l-.56-.46v.14c-.16-.11-.3-.13-.39 0s-.06.27.13.42a.21.21 0 00.39.03zM71.55 2.71c.1-.13.13-.22.06-.27h-.34c0 .07 0 .15.11.25a.11.11 0 00.17.02zM72 2.14l-.56-.46c-.11.12-.06.26.12.42zM61.77 3.44h-.44l.47.39a.22.22 0 00-.03-.39zM58.87 3.89a.2.2 0 00.05-.13.22.22 0 00.35 0 .21.21 0 000-.34c-.18-.16-.33-.17-.43 0a.18.18 0 000 .17h-.38zM70.62 3.83h.34l-.47-.39c-.1.1-.06.23.13.39zM69.05 2.68l-.29-.23-.42.12.19.16.52-.05zM64.08 3.14a.21.21 0 000-.34c-.18-.16-.33-.17-.43 0s-.06.27.12.42a.22.22 0 00.31-.08zM68.78 3.57h.34l-.46-.39c-.11.1-.07.23.12.39zM13.58 4.58h.16c.09 0 .13-.08.11-.12a.14.14 0 00-.19-.09.13.13 0 00-.08.21zM14 4.43c-.09 0-.11.09-.08.18s.07 0 .16 0 .13-.07.11-.12a.13.13 0 00-.19-.06zM14.49 4.54l-.13.05.18.09-.05-.14zM12.88 4.15h.16c.09 0 .13-.08.11-.12A.14.14 0 0013 4a.13.13 0 00-.12.15zM14.23 3.87a.14.14 0 000-.09l-.27.1.19.09a.11.11 0 000 .08l.34-.12zM14.65 3.94c0 .05.07.05.16 0s.06 0 0-.09 0-.06-.09 0-.09.05-.07.09zM14.67 5l.33-.11-.25-.06a.12.12 0 00-.08.17zM12.49 2.91a.06.06 0 000-.09c0-.09-.07-.13-.12-.11s-.05.07 0 .16.07.06.12.04zM13.19 4.57s.05.06.09 0 .06 0 .05-.09-.08-.13-.12-.11-.05.11-.02.2zM13.67 4l-.27.1.19.08c.09-.02.11-.08.08-.18zM13.37 2.81h-.32l-.33.12h.35a.34.34 0 00.3-.12zM15.83 3.19l-.01.39.13-.05-.12-.34zM17.69 2.41c.09 0 .12-.07.11-.12a.13.13 0 00-.19-.08.12.12 0 00-.08.18s.07.06.16.02zM14.83 4.42a.13.13 0 00-.09.18c0 .05.07.05.16 0s.1-.06.1-.1a.12.12 0 00-.17-.08zM18.66 2.35l-.18-.08a.12.12 0 00-.08.18zM18.32 2.25L18 2.22l.05.13.27-.1zM16.5 2.32l-.09.19.14-.05-.05-.14zM17.07 2.41a.12.12 0 00-.18-.08v.16s.05.06.09 0 .11-.03.09-.08zM13.83 2.79a2.14 2.14 0 00.92-.2 2.3 2.3 0 00-.92.2zM19.21 2.37c.09 0 .13-.07.11-.11a.13.13 0 00-.18-.09.14.14 0 00-.09.19s.07.05.16.01zM14.67 3.4a4 4 0 00.7-.19l.27-.1a3.06 3.06 0 00-2 .12h-.14l.37.17a4.57 4.57 0 00.8 0zM15.39 2.66a.07.07 0 000-.09l-.12-.11c-.05 0-.05.07 0 .16s.08.06.12.04zM12.2 3.17c.09 0 .13-.07.11-.11a.13.13 0 00-.18-.06.14.14 0 00-.09.19s.07.02.16-.02zM16.17 2.68c.09 0 .13-.08.11-.12a.13.13 0 00-.19-.09.13.13 0 00-.08.19s.07.05.16.02zM6.07 3.64c.09 0 .12-.07.11-.11A.14.14 0 006 3.44a.13.13 0 00-.08.19s.08.05.15.01zM32.05 2.33l.48-.14.21-.08a3.16 3.16 0 00-1.12.12c.05.13.2.17.43.1zM31.75 6.64l-.27.1.19.09a.13.13 0 00.08-.19zM16.34 4.54a.13.13 0 00-.09.18 1.18 1.18 0 01.13-.18zM30.51 3.34a4.33 4.33 0 011 0l.93.11-.07-.2C32.22 3 32 2.91 31.61 3a6.65 6.65 0 00-.83.24zM7.33 3.94s.07.05.16 0 .13-.07.11-.12-.09-.11-.18-.08a.13.13 0 00-.09.2zM33.19 5.56c.09 0 .13-.07.11-.12s-.09-.12-.19-.08a.13.13 0 00-.08.18s.07.05.16.02zM32.31 2.81a.14.14 0 00-.09.19h.16c.08 0 .13-.08.11-.12a.13.13 0 00-.18-.07zM32.93 4.66s.06 0 0-.09-.07-.13-.12-.11-.05.07 0 .16a.07.07 0 00.12.04zM31.93 1.42l-.27.1.19.08a.12.12 0 00.08-.18zM10.6 3.01l-.08.19.13-.06-.05-.13zM11.98332203 3.63384437l.20582482-.07769263.07769262.20582482-.20582482.07769263zM10.2 3.16h-.32l-.34.13h.35a.41.41 0 00.31-.13zM11 3.57a2.6 2.6 0 00-.72.11v.14zM11.23 2.85c.09 0 .13-.07.11-.12a.12.12 0 00-.18-.08.13.13 0 00-.09.18s.07.05.16.02zM11.74 2.96l-.14.06-.07-.21-.15.44.41-.15-.05-.14zM9.72 3.73l.34-.13-.26-.06a.13.13 0 00-.08.19zM3.55 2.28c.09 0 .13-.07.11-.11a.13.13 0 00-.18-.09.14.14 0 00-.09.19s.07.05.16.01zM9.51 3.58l-.06.25.13-.05-.07-.2zM14.5 5.39a.12.12 0 00-.09.13l.18-.14s-.06-.01-.09.01zM8.93 2.87l-.25-.06A.13.13 0 008.6 3zM17.64 3.51s.07.05.16 0 .13-.07.11-.12a.14.14 0 00-.19-.08.13.13 0 00-.08.2zM25.1 2.69l-.32-.03.05.13.27-.1zM25.31 3.23c.09 0 .12-.08.11-.12a.13.13 0 00-.19-.11.12.12 0 00-.08.18s.07.08.16.05zM24.88 3.31l.13-.05-.18-.08-.14.05.19.08zM25.76 4.44s0 .06.1 0 .06-.05 0-.09-.07-.13-.12-.11-.01.11.02.2zM26.59 3.97l.32.04-.05-.14-.27.1zM25.66 3.75a1 1 0 00-.45 0L25 3.9a1.34 1.34 0 01.51.15A.6.6 0 0026 4a.4.4 0 00-.34-.25zM25.89 2.54l.08.21.41-.16-.49-.05zM24.68 1.77s.06-.05 0-.09-.07-.13-.12-.11-.05.07 0 .16a.06.06 0 00.12.04zM22.86 4.08v-.39l-.61.61h.23a.76.76 0 00.23 0l.29-.14zM24 2.94c0-.09-.07-.13-.12-.11s-.05.07 0 .16S24 3 24 3s.06 0 0-.06zM23.58 3.96l-.27.1.05.13.66-.09.13-.05-.28-.36-.29.27zM24.36 2.35l-.08-.2Q24.21 2 23.89 2c-.21.05-.36.1-.45.13l-.33.13a1.68 1.68 0 00.6.08zM28.25 1.65l-.6.23.34.1.26-.33zM22.54 4.66h.16c.09 0 .12-.07.11-.11a.14.14 0 00-.19-.09.13.13 0 00-.08.2zM28.88 3.72c.18-.06.25-.14.22-.23l-.47.18zM28.12 3.55a.12.12 0 00-.08.18h.16c.09 0 .12-.07.11-.12a.13.13 0 00-.19-.06zM28.7179 1.8463l.4042-.1505.049.1316-.4042.1505zM30.08 1.81a1.78 1.78 0 00-.79.14 1.94 1.94 0 00.42 0 .55.55 0 00.37-.14zM27.42 3.12l-.27.1.19.09a.13.13 0 00.08-.19zM27.49 1.87c.09 0 .12-.08.11-.12a.14.14 0 00-.19-.09.13.13 0 00-.08.19s.07.05.16.02zM27.7 3.86l-.18-.08-.14.05.19.08.13-.05zM19.68 2.2c.05 0 .06-.05 0-.1s-.03-.1-.07-.1-.05.07 0 .16a.07.07 0 00.07.04zM25 2.42l1.77-.21.13.34c.27-.1.36-.26.27-.49s-.16-.14-.4-.15a4.87 4.87 0 00-.76 0 4.12 4.12 0 00-.76.14l-.49.14h-.13zM27.96 2.3l-.32-.03-.09.19.41-.16zM27.14 3.61c0 .05.08.05.17 0s.12-.08.1-.12a.12.12 0 00-.18-.08.13.13 0 00-.09.2zM30.96 1.48l-.22.23.27-.1-.05-.13zM17.43 3.97l.2-.07-.41-.08-.27.1.48.05zM18.28 3a5.87 5.87 0 00-2.28.34c.08.23.41.27 1 .13a9.77 9.77 0 001.12-.3zM20.29 4.43c.1 0 .13-.08.11-.12a.14.14 0 10-.26.1s.07.05.15.02zM16.07 4.25l.19.09a.13.13 0 00.08-.19zM20.6 3.39l-.21.08.26.05-.05-.13zM18.83 3.6a.13.13 0 00-.09.18c0 .05.07.05.16 0s.13-.07.11-.12a.12.12 0 00-.18-.06zM20.11 2.11a.12.12 0 00-.18-.11v.16s.05.06.09 0 .11 0 .09-.05zM18.7 3.26l-.27.1.19.09a.13.13 0 00.08-.19zM18.63 4.52l.09-.19h-.16c-.09 0-.06.05 0 .1s.03.1.07.09zM18.09 3.88s0 .06.09 0 .06 0 0-.09-.07-.13-.12-.11-.01.11.03.2zM18.43 3.36l-.34.13.19.08q.2-.07.15-.21zM22.53 3.2l-.37.45h.13c.23-.14.3-.27.24-.45zM21.3 2.2c.09 0 .13-.07.11-.12a.12.12 0 00-.18-.08.13.13 0 00-.09.18s.07.05.16.02zM21.85 4.07a.19.19 0 00-.12.28zM18.46 3a1.66 1.66 0 001.33 0v.32a2 2 0 011.11-.34 3.35 3.35 0 001.1-.12h.14c-.57 0-1.15 0-1.76-.07A4.06 4.06 0 0018.6 3zM22.88 2.91s.05-.07 0-.16h-.1a.26.26 0 00-.11.12.13.13 0 00.21.04zM19.39 4.69h.16c.08 0 .13-.08.11-.12a.12.12 0 00-.18-.08.13.13 0 00-.09.2zM22.52 3s.05-.07 0-.16-.07-.12-.11-.11-.06.07 0 .16zM19.92 4.65s0 .06.09 0 .06-.05 0-.09-.07-.13-.12-.11-.01.11.03.2zM20.3 4l-.58-.32v.39l-.72.32a2.39 2.39 0 001-.06.19.19 0 01.13-.28zM21.26 3.52h.28a.69.69 0 01.3.07l-.06-.13zM21.2 4.16l-.05-.13-.19-.08.02.45.22-.24zM21.05 3.37l-.27.1.19.09a.13.13 0 00.08-.19z"/><path d="M181.05 11.53l-.05-.13-.29-.2v-.32a7 7 0 01-3.22-.48h.13l1.17.05.11-.12-1.51-.38.34-.12a.91.91 0 01.65 0 1.06 1.06 0 00.72 0h.13a8.6 8.6 0 00-1.29-.2 8.6 8.6 0 01-1.29-.2l.2-.3L177 9a2.6 2.6 0 01.55-.08 7.91 7.91 0 01.84 0 6.19 6.19 0 01.81.14q.38.09.45.3l-.09.41a1.09 1.09 0 00.21-.26 2.17 2.17 0 00.19-.34.73.73 0 00-.35-.25.73.73 0 01-.36-.26.39.39 0 000-.29l-.07-.21h-.23c.21.28.15.48-.17.59l-.1-.27a.34.34 0 01.09-.41l-.32-.07-.11.12v.36a1.06 1.06 0 01-.48.05 1.25 1.25 0 01-.46-.1c0-.18.05-.35.07-.53l-.14.1v-.07l.17-.06v-.06a1.43 1.43 0 01.25-.62l-.39.21-.14-.18a.24.24 0 010-.16v-.09a2.59 2.59 0 01-.19.33 3.17 3.17 0 01-.21.27l-.19-.09a1.05 1.05 0 00-.15.21c-.12.09-.17.18-.14.27a.39.39 0 00.1.16v.2h-.13a1.17 1.17 0 01-.78 0 6.81 6.81 0 01-.71-.29l-.05-.36a1.33 1.33 0 01.5-.1l.11-.11a.87.87 0 01-.33-.31.29.29 0 00-.36-.14h-.13v.23l-.25-.07v-.39h-.91l-.12.11.28.14q-.36.27-.66-.15l-.08-.44-.64-.08-.36.28a1 1 0 00-.3-.2.41.41 0 00-.32 0 .5.5 0 00-.29.26v-.39l-.2.3-.3-.2-.05-.14a1 1 0 010-.36l-.2.3h-.13a2.12 2.12 0 01-.5.1 3.51 3.51 0 01-.8 0 4 4 0 01-.73-.13.5.5 0 01-.37-.29l-.09.18h-.91v-.32l-.11-.11h-.64a.24.24 0 000-.12.12.12 0 00-.09.12h-.92a7.71 7.71 0 01-1.66-.15c0-.24 0-.37.21-.38s.24-.08.19-.22v-.13l-.57.35v.29h-.07a3.09 3.09 0 01-1.26 0 2.69 2.69 0 01-1.25-.4l.5-.33-.19-.09a1.68 1.68 0 00-.45.47l-.11-.12a5.4 5.4 0 00-.58.09 5.4 5.4 0 01-.58.09l.29-.71-.49-.29a2.2 2.2 0 00-.13.51.61.61 0 01-.22.45l-.5.13h-.56v-.38l-.07.25-.23-.45-.31.41h-.14a12.58 12.58 0 00-1.26 0A4.45 4.45 0 01154.2 5h-.14a1.32 1.32 0 000-.27v-.27a2.31 2.31 0 01.84.12 1.31 1.31 0 00.87 0h.13a5.64 5.64 0 00-1.15-.36l-.35-.06a1.77 1.77 0 00-.77 0 .59.59 0 00-.34.34l-.18-.31-.09.41.3.2-.06.25h-.14l-.38-.05a2 2 0 00-.15-.63h-.36v-.36a.11.11 0 01-.19-.09l-1.07-.24-.3-.2a1.2 1.2 0 01.1.62 1 1 0 01-.4.48h-.68l-.07.25a8.5 8.5 0 01-2.36-.09 13 13 0 00-2.31-.18v-.39h.06a1.3 1.3 0 01.87.08 1.52 1.52 0 001.07 0h.14l.2-.53a2.48 2.48 0 00-1.16-.24h-1.88a14.87 14.87 0 01-2-.1 4.52 4.52 0 01-.59-.1.19.19 0 00.11-.27.19.19 0 00-.13.26 2 2 0 01-.82-.38l.2-.3.25.07.08-.41L141 2l-.2.3-.21-.38a1.33 1.33 0 00-.4.6l.3.2-.41.14a5.19 5.19 0 01-1 .23.84.84 0 01-.88-.34l.23-.23h-.39l-.07.26-.27.09a.57.57 0 01-.51-.05 1.6 1.6 0 00-.56-.18l.45-.46a.68.68 0 01.33 0 .37.37 0 00.3-.11l-1-.33-.31.19a.66.66 0 01.12.45 1.15 1.15 0 01-.11.46h-.07a2 2 0 01-1-.09c-.51-.13-.79-.29-.85-.47a.25.25 0 01.17-.37v.39l.2-.3a.58.58 0 00.36-.05 2.3 2.3 0 00.39 0 2.3 2.3 0 01.39 0v.38l.29-.48a10.16 10.16 0 00-1.52-.42C133.88 1.22 133 1 132 .84l-2.75-.53C128.4.15 127.9 0 127.73 0l-.14.05v.39l.3.2a.7.7 0 01-.5.09h-.55c-.21.12-.31.26-.31.41a1.21 1.21 0 00.07.43 2.24 2.24 0 01.1.39.19.19 0 010 .15l-9.5.89-.24.28-.23.28-.56-.47a1.25 1.25 0 000 .44.52.52 0 01-.14.36c-.26.31-.84.41-1.74.29a3.84 3.84 0 01-1.83-.56l.39-.47a1.36 1.36 0 00-.92-.22 1.27 1.27 0 00-.83.3.42.42 0 00-.16-.25h-.44l.47.39a.36.36 0 01-.06.27l-5.25.23-.47-.39.15-.19a2 2 0 00-1.83-.26l.31.58a.56.56 0 01-.75-.15.56.56 0 00-.75-.15l.56.47c-.36.44-.94.53-1.74.29a5 5 0 01-1.67-.75 2.84 2.84 0 01-2 .66c-1 .06-2.09.1-3.27.13s-2.33 0-3.46 0a11.74 11.74 0 00-2.45.1l.75.62a2.58 2.58 0 01-1.69-.06 7.52 7.52 0 00-1.72-.4l-.32-.57a.8.8 0 01-.9-.44 12.68 12.68 0 00-2.24.89.44.44 0 01.17.08q.29.24.12.42c-.1.13-.24.11-.43 0a.34.34 0 01-.15-.33 2.08 2.08 0 01-2.39 0l.51-.51-.18-.16a1.84 1.84 0 00-.77-.4l-.93-.22v-.44l-1-.34-.11.7a2.44 2.44 0 01-1.23.72 9.05 9.05 0 01-1.78.34 12.76 12.76 0 01-1.85 0l-1.52-.07-.48-.56-1-.17.31.58-1.8.16A4.88 4.88 0 0166 3.92l-.33-.75-.1.7a2.92 2.92 0 01-1.37.21h-4.58L58 4a2.19 2.19 0 00-1.58-.28c-.57.11-1.13.25-1.69.41a10.24 10.24 0 01-1.65.37 1.78 1.78 0 01-1.45-.5l-.12-.42-4.44.58a28.58 28.58 0 01-4.47.25L42.47 4a2.62 2.62 0 01-1.64.45 11.51 11.51 0 00-1.77 0V6l-.31-1.52-.28.72v-1a3.37 3.37 0 01-2.23-.26 3.13 3.13 0 00-2.31-.18l-.27.72-.58.31.19.16 1.65.1.18.16-1.37.13-.1.7-.31.13a1.19 1.19 0 00-.32-.23h.31l-.47-.38c-.09.1-.05.22.06.34a1 1 0 00-.36-.12l-.12-.1-2.25.21-.06-.07a4.4 4.4 0 011.36-.28 4.16 4.16 0 001.29-.25c-.05-.14-.19-.2-.42-.19h-.04l-.39-.32a.14.14 0 000 .06l-.29-.09.22-.23-.18-.09.21-.23H31l-.08.18h.32a.26.26 0 01-.17.38l-.27.1.2-.24h-.45l-.16.21-.39-.28.47-.18-1.34.12H29l-.06.25a1.57 1.57 0 01.84 0 3.88 3.88 0 01-.92.2.38.38 0 01-.12-.3v-.36a2.41 2.41 0 00-1.24.17c0 .21-.12.3-.29.26a.48.48 0 00-.41-.27 2 2 0 00-.73 0l-.62.14a.18.18 0 00.08-.24.19.19 0 00-.13.25h-.07a5.77 5.77 0 00-.56.17l-.23-.61-.13.06v.38h-.13l-.65-.29a1.39 1.39 0 00-.09.27.38.38 0 01-.12.2 1.26 1.26 0 01-.62 0l-.8-.04c-.28-.05-.54-.11-.79-.17a1.07 1.07 0 00-.52 0l-.33.35C20.24 5 20 5 19.7 5H19v-.32a.42.42 0 00-.3.11l-.18.21c-.18-.19-.49-.2-.94 0s-.72.12-.82-.15q-.06-.13.15-.21h.13l.05.13h.32l.09-.19.33-.13.19.09.22-.24h-1.48a.76.76 0 00-.38.31.12.12 0 01.14.08s0 .09-.11.12-.14 0-.16 0l.05.14.19.08c.08.23 0 .37-.14.44a.7.7 0 01-.55 0c.17 0 .25 0 .24-.17a.9.9 0 00-.04-.47 1.52 1.52 0 00-.35-.53.51.51 0 00-.65-.12l-.13.05.51.12-.22.23.21.15-.82.65a.14.14 0 01.1.09s0 .08-.11.12-.15 0-.16 0 0 0 0-.05l-.13.1a2.42 2.42 0 01-.5.11 6.17 6.17 0 01-.81.08h-.88a4.66 4.66 0 01-.58 0l.5-.5a2.25 2.25 0 001.07-.24c.05.13.2.2.46.21a1.82 1.82 0 00.59-.07v-.4l-1.35-.11.25-.23a2 2 0 00-.67 0l-.81.08a3.36 3.36 0 01-.78 0 .53.53 0 01-.47-.32v-.07L10 4.4a1.11 1.11 0 01-.67.06.6.6 0 01-.46-.4 4 4 0 00.29-.46.57.57 0 000-.51L9.12 3l-.56.37a.44.44 0 01.07.59.61.61 0 00-.09.57.61.61 0 01-.59 0 .63.63 0 00-.6-.05v-.13L7 4.52l-.18-.09v-.32h-.45a4.19 4.19 0 01.23-.39c.13-.21.22-.32.26-.33a.85.85 0 01.6 0 .93.93 0 00.61 0v-.14a16.92 16.92 0 01-3.54-.4 14.2 14.2 0 01-3.37-1.2c-.31.12-.43.29-.35.51l.13.34c-.13 0-.34.14-.62.28S0 3 0 3.11v.11a.15.15 0 000 .09 1.26 1.26 0 00.13.26 1.3 1.3 0 01.14.26c.07.18 0 .36-.25.55a4.74 4.74 0 01.23.84 6 6 0 00.24.83c.17.45.34.67.52.65a4.75 4.75 0 01.99.11 1.66 1.66 0 01-1 .11 1.51 1.51 0 00-.8 0l-.2.21v.09l.34.2A1.84 1.84 0 000 8v11.8h181.05v-8.27zm-3.7-3.81a.2.2 0 01-.13.28.2.2 0 01.13-.28zm0 .55a.18.18 0 01-.13.27.19.19 0 01.09-.27zm-30.21-4.46c0 .09 0 .15-.09.18a.13.13 0 01-.18-.09zm-.63.14v.07c0 .05 0 .08-.11.12s-.14 0-.16 0zM34.33 4.7a.23.23 0 01-.35 0c-.18-.16-.23-.3-.12-.42s.25-.11.43 0a.22.22 0 01.04.42zm.17 0l-.13-.42.47.39a.22.22 0 01-.34.01zm-2.57.3l.05.08h-.09s.04-.02.04-.08zm-.9.11l-.11.05-.1-.09a.71.71 0 01.18.07zm-18.26-.23c.05 0 .09 0 .12.11a.07.07 0 010 .1.07.07 0 01-.1 0c-.07-.09-.06-.19-.02-.21zm-.35-.32a.12.12 0 01.18.08.06.06 0 010 .09h-.16zm-.24.44a.14.14 0 01.19.09s0 .08-.11.11-.15 0-.16 0a.13.13 0 01.08-.2zM.76 5.49H.6a.14.14 0 01.09-.19.13.13 0 01.18.09s-.02.07-.11.1zM2.17 7H2a.13.13 0 01.08-.19.14.14 0 01.19.09s-.01.03-.1.1zm.34.1l.14-.1.05.14zm1.87-3l-.11-.27c-.27.1-.44 0-.53-.18l-.05-.14a2.4 2.4 0 00.39 0 .46.46 0 00.34-.13 2.28 2.28 0 01.07.4c.01.14-.02.22-.11.27zm.45-.63h.45l-.4.15zm1.08 3.01a.14.14 0 01-.19-.09l.34-.12.05.13zM6.26 4a.42.42 0 00-.07.41.69.69 0 01-.64-.07 1 1 0 01-.43-.53l.4-.15v-.14l.45-.13q.31-.08.39.12a.5.5 0 01-.1.49zM8.4 5.53l-.27.11-.05-.14zM8 5.16l-.08.19a.13.13 0 01-.19-.08zm-.87.34c.18-.07.29 0 .34.1l-.13.05-.35-.1zm.27 1.12a.07.07 0 010 .1.07.07 0 01-.1 0v-.16s.01-.03.05.06zm-.7-.29l.1.27-.13.05-.11-.27zm-.11 1.35a.14.14 0 01.09-.19.13.13 0 01.18.09s0 .08-.11.12-.14.02-.16-.02zm.41.17a.13.13 0 01-.18-.09l.27-.1zm.3 0l-.08-.2h.55zm1 .53a.12.12 0 01-.18-.08l.27-.1zm-.06-.59h-.32l.47-.18v.14zm.14-1a2.36 2.36 0 01-.66.09L8 6.4c.2.23.38.31.56.25zM15.58 5s.08 0 .12.11a.07.07 0 010 .09h-.09c-.02 0-.08-.2-.03-.2zm0 1.46l-.34.12-.1-.27.34-.12zm-.08-.82s-.08 0-.12-.11 0-.14 0-.16.08 0 .12.11zM14.11 6l-.11.2a.12.12 0 01-.18-.08zm-1.31.19l.19.09h1.71l-.09.19-1.16.09a6.24 6.24 0 01-1.14-.07zm1.26.68L14 7h-.16a.12.12 0 01.08-.18.13.13 0 01.14.04zm-1.17 0v.09c0 .02-.07 0-.09 0s0-.14 0-.16.06-.05.09.04zm-.57-.09c.14 0 .22 0 .25.06l-.33.12zm-.62-.62c.05 0 .09 0 .12.11s0 .08 0 .1a.07.07 0 01-.09 0c-.08-.17-.07-.22-.03-.24zm.09.43h.13l-.35.29zm-.16-1.24a1.85 1.85 0 01-.31.42h-.13a.45.45 0 01.3-.42zM11.2 5a.13.13 0 01.19.09l-.27.1zm.17 1.25l-.61.23a.13.13 0 01.19.08s0 .09-.11.12-.15 0-.16 0a.13.13 0 01.08-.19l-.27.1c0-.17.22-.31.53-.43zm-.61-.39h-.09a.23.23 0 010-.16.13.13 0 01.19.09s-.01.05-.1.08zm0-.77l.08.2-.34.13-.07-.2zm-.32 1c.09 0 .15 0 .18.08s0 .09-.11.12-.14 0-.16 0a.13.13 0 01.1-.22zm-.3.42l-.14.26c-.18.07-.31 0-.4-.24a1.24 1.24 0 01.55-.04zm-1.38 1.2H8.6c-.01 0 0-.08.11-.12a.07.07 0 010 .14zm.24-.1l.13-.05.05.13zm.19-.92h-.36l.47-.19v.14zm1.93 1.65a.62.62 0 01-.34 0 1.63 1.63 0 01-.39-.13l.13-.05.74.11zm-.56-.48a2 2 0 01-1-.16 6.85 6.85 0 011-.2c.56-.09.87 0 .94.14l.05.14zm1.2-.07s0-.08.11-.11.08 0 .09 0 0 .07 0 .09-.15.07-.17.02zm.24.61h-.16a.13.13 0 01.08-.18c.1 0 .16 0 .19.08s0 .06-.11.1zm.71 0h-.09c-.01 0 0-.15 0-.16s.09 0 .12.11.03.07-.01.09zm.87.06s-.09 0-.12-.11 0-.15 0-.16.08 0 .11.11zm-.06-.56a2 2 0 01-1.32-.23 4.17 4.17 0 011.29-.06h1.4a4.86 4.86 0 01-1.35.33zM15 5.21a.13.13 0 01.06-.21.13.13 0 01.18.09.14.14 0 01.08-.19c.1 0 .16 0 .19.08s0 .09-.11.12-.14 0-.16 0 0 .08-.11.11-.13.04-.13 0zm.31 2.65a.13.13 0 01-.19-.08l.27-.11zm.3 0l.08-.19c.13 0 .22 0 .25.06zm.31-1.2h-.09V6.5s.08 0 .12.11a.07.07 0 01-.06.02zm.53 1.19h-.32.45zm-.14-1.15v-.13h.06c.18-.06.29 0 .32 0zm.75 0h-.1c-.02 0 0-.14 0-.16s.08 0 .12.11.02-.02-.02 0zm.36 1.17h-.16a.14.14 0 01.08-.19c.1 0 .16 0 .19.08s-.02.03-.11.06zm5.8-2s-.08 0-.12-.11 0-.14 0-.16.09 0 .12.11zm.3 1.81h-.16a.13.13 0 01.09-.19c.09 0 .15 0 .18.08s-.02.07-.11.1zm.23-1.85h-.1v-.16s.08 0 .12.11a.07.07 0 01-.02.04zm.57 1.32h-.16c-.02 0 0-.08.11-.11s.08 0 .09 0 .01.08-.04.1zm.53-1.66a.12.12 0 01.18.08c0 .05 0 .09-.11.12s-.14 0-.16 0a.13.13 0 01.09-.21zm.74 1.95h-.16a.13.13 0 01.08-.19.13.13 0 01.19.08c.01.03-.02.07-.11.1zm-1-.39l.47-.18a2.25 2.25 0 01.73-.12l.05.13a2.46 2.46 0 01-1.25.12zm2 .17a.06.06 0 01-.09 0v-.16c0-.01.09 0 .12.11s0 .02-.04.04zm0-.94L26.51 6l.19.09a.13.13 0 01-.09.18zm5.87-.36a.12.12 0 01.18.08s0 .08-.11.12-.14 0-.16 0a.13.13 0 01.11-.21zm-.29.46v.07h-.34zm-.67 0h.29l.46.38a.2.2 0 000-.13h.35l-.38-.31h.31l.07.2.4-.2c.12-.05.19-.05.22 0l-.39.17.09.48a4.91 4.91 0 01-.59 0c-.51 0-.8-.07-.87-.25zM30.91 6zm-.56-.8a.65.65 0 01.19 0 .34.34 0 00.11.14.65.65 0 01-.57 0zm-.35.32a.14.14 0 01.19.09s0 .08-.11.12-.14 0-.16 0a.13.13 0 01.08-.21zm-.12-.33l-.09.18v-.13zm-.15.44a1 1 0 01.06.26h-.12l.1.2a.33.33 0 010 .14h-.32a.29.29 0 010-.13h.11l-.12-.1a.73.73 0 01.31-.37zm-.44-.37s.08 0 .11.11 0 .07 0 .09-.07 0-.09 0-.05-.19 0-.2zm-.29.12l-.08.19-.06-.14zm-.41.54s.08 0 .12.11a.07.07 0 01-.05.1.07.07 0 01-.09 0zm-.17-1.47s.08 0 .11.11a.06.06 0 010 .09h-.09c-.02 0-.1-.18-.05-.2zm-.08.41a.14.14 0 01.16.14.07.07 0 01-.05.09h-.16zm0 .46s.08 0 .12.11a.07.07 0 01-.05.09h-.09c-.02 0-.04-.19.01-.2zm-.46 0c.05 0 .09 0 .12.11s0 .07 0 .09-.08 0-.09 0-.08-.17-.04-.18zm-.81.3a.13.13 0 01.09-.18.12.12 0 01.18.08s0 .08-.1.12-.16.05-.18 0zm.26 1.29a.06.06 0 01-.09 0v-.16c0-.01.09 0 .12.11s.01.05-.04.07zm0-1h-.16a.13.13 0 01.08-.19.14.14 0 01.19.09s-.02.08-.11.12zm.08.43c.05 0 .09 0 .12.11s0 .07 0 .09-.08 0-.09 0zm.43.53h-.16c-.02 0 0 .08-.11.12s-.14 0-.16 0a.13.13 0 01.09-.18.12.12 0 01.18.08.14.14 0 01.09-.19.13.13 0 01.18.09s-.02.06-.11.1zm0-.39a1.82 1.82 0 00.65-.21 1.28 1.28 0 00.5-.37v.39a1.88 1.88 0 01-.6.15 2.85 2.85 0 01-.54.06zm.86 1.24v-.11c0-.01.08 0 .11.1zm.4-.72l-.3.12-.06-.12a1.65 1.65 0 01.79-.14l-.41.14zm0 .71a.13.13 0 01.12 0zm.49 0h-.26v-.09c.14 0 .22 0 .25.06zm.1 0a.13.13 0 01.07 0 .11.11 0 01.15 0zm.44-.73h-.33l.34-.13A4 4 0 0131 6.6l.11.27a1.45 1.45 0 01-.57.09l-.11-.09a.18.18 0 000 .09h-.17zm.17.69l.12-.11a11.4 11.4 0 011.3-.11A3.75 3.75 0 0033 7.17v.24zm2.92-.32a.2.2 0 01-.01-.35l.13-.12a.11.11 0 01.07 0v.34a.1.1 0 01-.14.08zM34.19 6v.34L33.75 6c.11-.16.25-.15.44 0zm-.31 1.32l-.05-.51a.31.31 0 01.05.52zm.31-.32l-.13-.42.57.46c-.11.09-.25.07-.44-.04zm.26-.89l.28.23.05.51zm1.81-1l.11-.7.23.59h.51l1 .34-.24.28-2-.08-.28-.23zM36 4.8a.22.22 0 01-.35 0l-.12-.42zm-.14 1.31v.34l-.47-.38c.12-.13.26-.07.45.04zm-.64.58v-.44l.23.67zm.64.37l-.12-.42.46.39c-.12.13-.2.13-.36.03zm.31-.37c.11-.13.25-.11.44 0v.34zM37 7l-.19-.16-.23-.66q.57-.32 1.32.3l.47.39zm2.43-1.78l2 .07.28.24a5.89 5.89 0 01-1.27.29l-1.28.12zM39.55 7a.22.22 0 01-.34 0 .45.45 0 01-.21-.21l.09.31-.56-.46c.1-.13.25-.11.43 0v.11a.21.21 0 010-.2c.1-.13.25-.11.44 0a.23.23 0 01.15.45zm.17 0l-.12-.42.46.39a.21.21 0 01-.34.03zm.22-.45c.1-.13.25-.11.43 0l.13.45zm.9-.52c.1-.12.25-.11.44 0v.34zm.51 0c.11-.12.25-.1.44 0a.34.34 0 01.07.11l-.09-.28.47.39a.22.22 0 01-.34 0v-.06a.19.19 0 01-.06.15.21.21 0 01-.34 0c-.21-.13-.25-.27-.15-.4zm1.22 1c-.1.13-.25.11-.43 0a.5.5 0 01-.1-.13v.22l-.47-.39c.09-.11.22-.09.39 0a.14.14 0 010-.14c.1-.13.25-.11.44 0s.27.24.17.41zm-.41-1.6l.63.2.4.66zm1.38.82a.31.31 0 010-.51.33.33 0 010 .43zm1-1l-.12-.42.46.39a.22.22 0 01-.32-.09zm.22-.45c.1-.13.25-.11.43 0l.13.42zm1 .34a.22.22 0 01-.34 0c-.19-.16-.23-.3-.13-.42s.25-.11.44 0a.23.23 0 01.03.28zM47 6a.22.22 0 01-.34 0 .5.5 0 01-.1-.13v.22l-.47-.39c.09-.11.22-.09.39 0a.14.14 0 010-.14c.1-.13.25-.11.44 0A.23.23 0 0147 6zm.36.14l-.13-.42.56.46c-.12.16-.27.14-.45-.01zm.31-.38c.1-.12.25-.11.43 0v.34zm4.93.15V5.8a.21.21 0 010 .2c-.11.13-.25.11-.44 0s-.23-.3-.12-.42.25-.11.43 0a.45.45 0 01.17.22l-.09-.31.47.39a.23.23 0 01-.44.06zm1.25.4a.32.32 0 010-.51.32.32 0 01-.02.54zm.44 0a.33.33 0 01-.05-.52.33.33 0 01.03.6zm.71-1.2c-.18-.16-.23-.3-.12-.42s.25-.11.43 0a.2.2 0 01.07.11l-.08-.28.56.47c-.1.12-.25.11-.44 0v-.07a.4.4 0 01-.06.16.23.23 0 01-.36.03zm.36 1.09l-.12-.42.47.39a.23.23 0 01-.34.03zm.22-.45c.11-.13.25-.12.44 0l.12.42zm.15-1.14c.11-.13.25-.11.44 0v.35zm.63-.75l.93-.17-.22.31-.42.12zm.72 1.23L57 4.67l.47.38a.21.21 0 01-.38.04zM59 4.74c.11-.12.25-.11.44 0v.34zm.64.37l-.12-.42.47.39a.22.22 0 01-.4.03zm10.11-1.37c.1-.13.25-.11.43 0l.13.42zm7.06.64L76.68 4l.47.39a.22.22 0 01-.34-.01zm.31-.38c.1-.12.25-.1.43 0v.34zm.15-1.13c.1-.13.25-.11.44 0v.35zm3.42 2.36c.1-.13.25-.11.43 0a.25.25 0 01-.31.38q-.28-.2-.12-.38zm-.73.5l-.13-.42.47.39a.22.22 0 01-.3.03zm.21-.45c.1-.13.25-.11.44 0v.35zm.72 1.22l-.12-.42.46.39a.21.21 0 01-.34.03zm.31-.37c.1-.12.25-.11.44 0v.34zm11.11-.43a.22.22 0 01-.35 0c-.18-.16-.22-.3-.12-.43s.25-.1.44.05a.22.22 0 01.03.38zm-.11-1.2v.35l-.47-.39c.13-.13.27-.11.47.04zm-.41.3a.21.21 0 01-.34 0l-.13-.42zm-1-.34c.1-.12.25-.11.44 0s.22.29.12.42-.25.11-.44 0-.2-.29-.1-.42zm.36 1.09a.21.21 0 01-.34 0l-.13-.42zm-.42.13c-.1.12-.25.1-.44 0s-.23-.29-.12-.42.25-.11.43 0 .25.29.15.42zm-.36-1.1l.19.16-.86.08-.19-.15zm-3.27.92a.22.22 0 01-.34 0l-.12-.42zm-2.19-1.36c.1-.12.24-.1.43.05a.21.21 0 010 .34.21.21 0 01-.34 0c-.16-.12-.2-.26-.09-.39zm-2.37 2.47l-.12-.42.46.39a.22.22 0 01-.34.03zm.22-.45c.1-.13.25-.11.44 0l.12.43zm.64.37l-.13-.42.47.39a.21.21 0 01-.34.03zm.65-1.36l.28.24h-.44zm-.15 1.14c.1-.12.25-.11.43.05v.34zm1.1.25V6.5a.24.24 0 01-.06.15.21.21 0 01-.34 0c-.19-.15-.23-.29-.13-.42s.25-.11.44 0a.26.26 0 01.07.11l-.09-.28.56.47c-.16.2-.31.18-.45.03zm.31-.38c.1-.12.25-.1.43.05v.34zm1 .35c-.1.12-.19.16-.25.11a.22.22 0 010-.35.22.22 0 01.34 0q0 .04-.15.24zm0-1c-.19-.16-.23-.3-.13-.43s.25-.1.44 0a.22.22 0 010 .34.21.21 0 01-.37.14zm.36 1.08l-.13-.41.47.38a.21.21 0 01-.4.08zM88 6.54v-.11a.21.21 0 010 .2c-.1.13-.25.11-.43 0a.5.5 0 01-.1-.13v.22L87 6.33c.09-.11.22-.09.38 0a.21.21 0 010-.15c.1-.12.25-.1.44 0a.52.52 0 01.17.22l-.1-.31.47.39a.22.22 0 01-.36.06zm.5-.22c.1-.13.25-.11.43 0v.35zm.62-.75a.21.21 0 01-.34 0 .48.48 0 01-.18-.22l.1.32-.56-.47c.1-.13.24-.11.43 0v.1a.21.21 0 010-.2c.1-.12.25-.11.44.05a.22.22 0 01.09.42zm.13 1.37v-.51a.32.32 0 01-.02.51zm.1-.7c.11-.13.25-.11.44 0l.12.42zm1 .34a.22.22 0 01-.35 0c-.18-.15-.23-.29-.12-.42s.25-.11.43 0a.21.21 0 01.01.42zm.35.14l-.12-.42.56.47c-.14.12-.28.1-.47-.05zm.3-.38c.1-.12.24-.1.43 0v.34zm1.44.73a.21.21 0 01-.34 0c-.18-.16-.23-.3-.12-.42a.23.23 0 01-.35 0c-.18-.16-.23-.3-.12-.42s.25-.11.43 0a.22.22 0 010 .35c.1-.13.24-.11.43 0a.21.21 0 01.06.49zm.91-.51a.23.23 0 01-.35 0q-.27-.22-.12-.42c.1-.12.25-.11.44 0a.22.22 0 01.02.42zm.42-.13c-.11.13-.19.16-.25.11l.06-.26c.1-.13.19-.16.25-.11s.03.14-.07.26zm2.08.15c-.1.13-.24.11-.43 0s-.23-.3-.13-.42.25-.11.44 0 .27.3.11.42zm.08-.09l-.12-.42.47.39a.22.22 0 01-.36.03zm-1-.73a11.51 11.51 0 01-2.13-.1l-.28-.24 1.11-.19-.26-.23-.63-.2-.28-.23c.46-.05 1-.11 1.67-.2a1.91 1.91 0 011.54.33l-.23.3.2.33c.12.1.29 0 .5-.22l.2-.63.24.67h.51l-.23.28c-.21.19-.86.32-1.86.33zm2.45.85a.21.21 0 01-.34 0q-.28-.22-.12-.42c.1-.12.25-.11.43 0a.21.21 0 01.05.42zm.17 0l-.12-.42.47.39a.23.23 0 01-.33.02zm.35-1l-.13-.42.47.39a.21.21 0 01-.32.03zm1.11-1a.22.22 0 01-.34 0c-.18-.16-.23-.3-.12-.42s.25-.11.43 0a.22.22 0 01.02.46zm.41 1.6c.11-.12.25-.11.44 0v.34zm1.33-.64c-.11.12-.19.16-.25.11v-.34c.05-.07.13 0 .26.06a.11.11 0 01.01.21zm.15-.19c.1-.12.25-.11.44 0v.34zm.64.37c-.19-.15-.23-.29-.13-.42s.25-.11.44 0a.26.26 0 01.07.11l-.08-.28.56.47c-.11.12-.25.1-.44 0v-.06a.19.19 0 01-.06.15.21.21 0 01-.34.07zm.39.49c.1-.13.25-.11.44 0v.35zm1.51-.49a.21.21 0 01-.34 0c-.19-.15-.23-.29-.13-.42s.25-.11.44 0a.22.22 0 01.05.46zm5.25-.23c.1-.12.25-.11.44.05a.22.22 0 010 .34.21.21 0 01-.34 0c-.14-.08-.18-.22-.08-.35zm-2.69.3l.23-.28h.44l.28.23zm1.65.1a.21.21 0 01-.34 0c-.19-.15-.23-.29-.13-.42s.25-.11.44 0a.22.22 0 010 .42zm.35-.12c-.1.12-.19.16-.25.11l.06-.27c.11-.12.19-.16.25-.11s.08.14-.06.27zm.59-.14l.13.42-.56-.47c.14-.12.29-.11.47.05zm.29 1.18v-.06a.32.32 0 01-.06.15.21.21 0 01-.34 0c-.19-.15-.23-.29-.13-.42s.25-.11.44 0a.17.17 0 01.06.11l-.08-.28.56.46c-.08.2-.23.2-.41.04zm.31-.38c.1-.12.24-.1.43 0v.34zm1.32-.64l-.19-.15h.34l.28.23zm1.63-2a.22.22 0 01-.34 0c-.19-.16-.23-.3-.13-.42s.25-.11.44 0a.23.23 0 01.07.46zm.88 2a.22.22 0 01-.35 0c-.18-.15-.23-.29-.12-.42s.25-.11.44 0a.22.22 0 01.07.45zm5.59-2.16l-.13-.42.56.46c-.04.16-.21.14-.39-.01zm1.71-.16l-.93.17-.19-.15 1.27-.21zm2.06 2.66c.1-.13.25-.11.44 0v.34zm6-5.36l.25-.16v.07zm1.94 3.81l.19-.08a.52.52 0 01-.11.07zm.17 0s.07-.1.25-.16zm.28.13a.18.18 0 01.13-.27.19.19 0 01-.11.33zm1-2.93a.19.19 0 01.14-.27.19.19 0 01-.17.33zM133 5h-.16l.25-.16v.07s-.03.01-.09.09zm.42-2.74l-1.26-.32-.16-.16a6.28 6.28 0 00.7-.06c.32 0 .52 0 .62.13l.13-.05.05.37zm.74-.26l-.25-.06h.14l.25.06zm1.43 2.33s0-.09.11-.12.15 0 .16 0l-.25.16zm.37.17h-.16l.24-.16v.07s-.04.01-.11.04zm.29 0a.07.07 0 01-.09 0v-.07h.16a.07.07 0 01-.1 0zm4.63.36v.07s0 .08-.11.11-.14 0-.16 0zM140.14 3a.19.19 0 01-.13.27.18.18 0 01.13-.27zm-.09 1.93h-.22l.2-.3zm-.38-1.08a.12.12 0 01-.08.18.12.12 0 01.08-.2zm-.18-.09a.19.19 0 01-.13.27.18.18 0 01.13-.29zm-.49-.24v.07l-.28.09zm-1.28-.62l-.25.16v-.07zm-.66 1.6l.43.16a1.32 1.32 0 00-.27 0h-.27zm.06 1a.41.41 0 01.22-.23h.1c0 .09 0 .16-.16.21s-.11.12-.13.07zm.25.06l.25-.16s-.04.15-.22.21zm.22-1.75l-.11-.11.25.06zm.13-.73a.2.2 0 01.13-.28.19.19 0 01-.1.33zm.36 2.54h-.16l.25-.16v.07s.03.11-.06.14zm.08-.86H138c-.01 0 0-.1.18-.14s.05.17.01.19zm0-.91v-.14h.16zm.44 1.67a.24.24 0 01-.3 0 1.33 1.33 0 01.5-.1zm.25.07l.25-.17s-.1.15-.24.22zm.25.06v-.06s0-.09.11-.12.14 0 .16 0zm.06-.82h-.44V4.7l.27-.1a1.15 1.15 0 01.36-.05.3.3 0 01.3.2v.07h-.13zm.24.8v-.1h.09v.07c-.01.13-.07.12-.08.08zm.19.54a.19.19 0 01.13-.28.2.2 0 01-.12.33zm.13-2.17s0-.08.11-.11.15 0 .16 0l-.24.16zm.28 1.71l-.18-.09h.14l.25.06zm.46-2.6l-.24.16s.01-.1.19-.16zm0 2.66v-.06s0-.09.11-.12a.13.13 0 01.18.09zm.48.07h-.16l.25-.16v.07s-.03.05-.12.09zm.21-.08l.11-.11.07.2zm.28-.71L141 4.9l.13-.05.41.09zm12.29-.64l-.25.17s.04-.1.22-.17zm-.94 1.47l.41.09L153 6l-.41-.09zm-.61-1.31s-.07.1-.25.17zm-.46-.45a1.59 1.59 0 01-.09.41l-.21-.38a.24.24 0 00.27-.03zm-.19.76h.15l-.24.16v-.07s-.03-.06.06-.09zm-.52-.81h.16a2.12 2.12 0 01-.19.52zm0 .75a.19.19 0 01-.14.27.19.19 0 01.14-.27zm-.87-.08h.16c.02 0 0 .14 0 .16s-.08 0-.11 0h-.12v-.07s-.01-.06.08-.09zm-1.61.41l.16.25h-.61zm-.14 1.35h-.07a1.39 1.39 0 01-1.31-.14l.21-.07a.91.91 0 01.61 0 3.56 3.56 0 01.57.21zm-.72-1.2a.11.11 0 01.11 0h.11l-.11.11-.25-.06zm-.66-.06l.36-.28c.11.32 0 .53-.24.62-.09 0-.15 0-.18-.09v-.06l-.27.09zM145.18 5l.09.27-.24.17zm-.25-.06l-.07.25-.13.05zm-.22-1.07h.16c.02 0 0 .14 0 .16s-.09 0-.12 0h-.11v-.06s-.02-.12.07-.15zm0 .61h.16l-.25.17v-.07s-.02-.11.07-.15zM144.08 6l.25.06h-.14a.14.14 0 01-.11 0H144zm-.17-.71A.18.18 0 01144 5a.19.19 0 01-.09.24zm.36-.5v.06s0 .09-.11.12-.15 0-.16 0zm-.81-.79a.57.57 0 01.66.15l-.25.17.1.27c0 .13 0 .31-.2.52a.5.5 0 00.06-.48.76.76 0 00-.49-.51zm.28 2.12a.13.13 0 01.09-.19.14.14 0 01-.09.14zM143.52 5v-.09a.26.26 0 01.11-.12c.05.14 0 .22-.06.25s-.04-.04-.05-.04zm0 .91l-.11.11-.18-.08.13-.05zm-.29-1l.18-.14-.06.25h-.14zm-1.2 0a.51.51 0 01.3 0 1.51 1.51 0 00.34.08l-.28.09a.39.39 0 01-.5-.12zM141.8 6a.19.19 0 01.13-.27.18.18 0 01-.13.27zm.27-.09l.05-.1a.07.07 0 01.09 0v.07c-.07.06-.12.05-.14.01zm.25.06V5.9s0-.08.11-.11.15 0 .16 0zm.3 0h.14a.14.14 0 01.11 0 .11.11 0 00.11 0l-.11.12zm.51.59h-.16c-.02 0 0-.15 0-.16a.11.11 0 01.11 0 .17.17 0 00.12 0v.07c.06-.03.02.01-.07.04zm.3 0a.07.07 0 01-.1 0v-.07-.09h.1c.05.01.04.06 0 .08zm.06 0s.08 0 .09-.07a.16.16 0 01.09-.07h.16c.01 0-.09.1-.18.14s-.14-.06-.16-.1zm.26.06s.06-.1.24-.16zm.54 0l-.29-.13.21-.07.18.09zm.16-1.51l-.07-.2h.32l-.13.28h-.08zm.09 1.57v-.07s0-.08.11-.11.15 0 .16 0zm.45-.46l-.41-.08.11-.12.44.15zm.35.11h-.16l.24-.16v.06s.01.01-.08.04zm0-1.23l.25-.16V5s0 .09-.11.12-.1-.04-.12-.12zm.18 1.16l.11-.12.07.21zm.12-1c0-.14 0-.22.07-.25.06.11.04.2-.05.23zm.12.11V5.3s0-.08.11-.11.15 0 .17 0zm.54 0l.09-.41.11.11-.28.48-.17-.25zm-.12.73l.66.15-.11.11-.66-.15zm.26.75a.3.3 0 01.18-.14h.09v.07c-.14.12-.23.13-.25.09zm.39 0s.07-.1.25-.16zm1.32.08a.16.16 0 01-.08.05.13.13 0 01-.18-.09l.27-.1v.07a.72.72 0 01.22-.11zm.63-.38l-.18-.09h.13l.19.08zm.3-1.1a.25.25 0 01-.22 0l.2-.3.16.25zm.5 1.2l-.18-.09H149.69zm.45 0a.2.2 0 01-.11 0 .11.11 0 00-.11 0v-.07s0-.08.12-.11.14 0 .16 0 .01.19-.04.21zm.19.08h-.09v-.16c0-.02.07 0 .09 0v.07s.06.11.02.12zm0-1.2a.89.89 0 01-.38 0l-.4-.06.18-.13h.55l.18.09zm.26-.55h-.09v-.16c0-.02.08 0 .09 0v.07a.07.07 0 01-.02.11zm.2-.53h.16s0 .08-.11.12h-.14a.13.13 0 01.07-.09zm.19.32l-.27.23s.07-.14.25-.2zm.07 2l-.18-.08h.13l.19.09zm.23 0s0-.08.11-.12.15 0 .16 0l-.25.16zm.37.18h-.16c-.01 0 0-.15 0-.16a.14.14 0 01.11 0 .11.11 0 00.11 0v.07c.04 0 .01.04-.08.07zm.07-1.1a.69.69 0 01-.73-.12l.2-.3h.07c.09 0 .18 0 .27.14l.26.29zm0-1.16a.3.3 0 01.18-.14h.16a.3.3 0 01-.18.14c-.06.03-.11.03-.13-.02zm.39 1.09s-.06.1-.24.16zm0 .91l-.25.17c-.05-.05.04-.1.25-.17zm.07.21h-.16a.3.3 0 01.18-.14h.16a.34.34 0 01-.25.14zm0-1v-.06s0-.09.11-.12.14 0 .16 0zm.12-.95l.11-.12.14.18zm.49 2l-.18-.09h.13l.18.09zm.25.06v-.07s0-.08.11-.11.14 0 .16 0zm.25.07a.13.13 0 01.09-.19.13.13 0 01-.09.22zm.08-1.1s0-.08.11-.11.14 0 .16 0l-.25.16zm.08 1.12s.07-.1.25-.17zm.46 0h-.16a.3.3 0 01.18-.14h.16c.02 0-.08 0-.09.07a.22.22 0 01-.09.09zm.09 0l.25-.16s-.07.16-.25.22zm.21-.91a.18.18 0 01.13-.27.18.18 0 01-.13.33zm.5 1h-.17l.25-.16v.07s.01.09-.08.12zm4.51-2.34a.23.23 0 01.12-.12c0 .09 0 .16-.16.21zm-.22.46h-.16c-.02 0 .08 0 .09-.06a.13.13 0 01.09-.07h.16a.34.34 0 01-.18.16zm7.77 1.47h.11a.2.2 0 00.11 0l-.11.11-.25-.06zm-.19-.09l-.24.17s.06-.07.24-.14zm-.47-.03h.1v.13h-.16c-.02 0 .06-.11.06-.13zm-.31 0s-.07.1-.25.16zm-.87-.08a.13.13 0 01-.09.19.13.13 0 01.08-.23zm-.73-.12a.19.19 0 01-.13.27.18.18 0 01.12-.31zm.09 1.8a.07.07 0 01-.09-.05v-.16c.05 0 .08 0 .09.05s.04.1-.01.12zm.07-1.55h-.13a.12.12 0 01.08-.18h.16s-.03.1-.12.14zm.62 1.53h-.22c-.01 0 0-.15 0-.16a.11.11 0 01.11 0h.12A.12.12 0 01165 8h.15zm0-1.45s.07-.1.25-.17zm.29 1s0-.08.11-.11.15 0 .16 0l-.25.16zm.37.18h-.16c-.01 0 0-.15 0-.16a.11.11 0 01.11 0 .14.14 0 00.11 0v.07c.07.02.04.05-.05.12zm.12-1.19s0-.08.11-.11.14 0 .16 0l-.25.16zm.33 1l-.25.17c-.01-.1.08-.15.27-.22zm.07.21h-.16a.3.3 0 01.18-.14h.16a.34.34 0 01-.17.09zm.43-.08a.54.54 0 01-.21.11l.25-.16h.08a.13.13 0 01.19.08l-.28.1zm.46 0c0 .05-.07.1-.25.17zm-.2.53s.07-.1.25-.16zm.4-.37h-.09v-.14a.13.13 0 01.19.09zm.26.07h-.16l.24-.17v.07s.02-.04-.07.04zm1.83-.65l-.23.11v-.07zm-1.45.66l-.17-.15h.14a.11.11 0 01.11 0 .14.14 0 00.14 0zm.13-.5a.2.2 0 01.13-.28.19.19 0 01-.12.22zm.63.7s0-.09.11-.12.14 0 .16 0l-.25.16zm.36.17h-.16l.25-.16v.07s.01 0-.08.03zm.3 0h-.09v-.13a.12.12 0 01.18.08zm.06-.71v-.07s0-.08.12-.12a.13.13 0 01-.11.11zm7.67.13L177 8a.35.35 0 010 .18v.18l-.13.05a.13.13 0 01-.12 0h-.11zm-.11-.11v.07s0 .08-.11.11-.15 0-.16 0zm-.32 1.49h-.07a1.23 1.23 0 01-1.14-.21l.11-.12a1 1 0 011.11.25zm-1.17-.74l-.05.09h-.09v-.14a.14.14 0 01.15-.03zm-.34.35l.05.13h-.16zm-.19-.54a.19.19 0 01-.13.27c-.04-.22 0-.31.14-.35zm-.4-.7a.17.17 0 01.12 0 .11.11 0 00.11 0l-.18.14-.18-.09zm-.35.73l-.34-.42h.07a1.34 1.34 0 01.71.06v.36c-.19.01-.35 0-.43-.08zm.17.48l-.28.09h-.22l.24-.16h.06c.11-.14.17-.11.21-.01zm-.45-1.07l.24-.16v.07s0 .08-.11.11-.11-.05-.12-.1zm.67 1.06l.19.09h-.14a.2.2 0 01-.11 0 .16.16 0 00-.12 0zM174 7.16a.11.11 0 01.11 0 .17.17 0 00.12 0l-.12.12-.25-.07zm-.88.31l.15.86-.14.05-.66-.15.1-.8v.32a.31.31 0 00.09.16s.06.06.09.15a.46.46 0 00.21-.29.44.44 0 01.11-.3zm-.75 0h-.16l.24-.16v.07s-.04.09-.13.12zm.29-.25v-.07s0-.09.12-.12.14 0 .16 0zm.19-.53l-.24.16s.01-.07.19-.13zm-.2.3s-.06.1-.24.16zm-.5-.36h.16l-.25.16v-.06s-.06-.04.04-.07zm-.48-.06a.2.2 0 01-.13.28.19.19 0 01.08-.25zm-.23 0a.14.14 0 01-.09.19.14.14 0 01.04-.16zm-1 .5h.09v.14h-.16c-.01 0 0-.1.05-.11zm.14.4l-.25.17s.05-.07.23-.14zm.1.5c0 .05-.07.1-.25.17zm-.28-.13a.19.19 0 01-.13.28.2.2 0 01.11-.25zm-.38.44c0-.05 0-.08.12-.12s.14 0 .16 0l-.25.17zm.46.22v-.07h-.23l.25-.17v.07h.23zm.29-.48c0-.05 0-.09.11-.12s.15 0 .16 0l-.24.17zm.46 0v.07s0 .08-.11.11-.14 0-.16 0zm-.09.53c-.06 0-.1 0-.13-.07l.27-.1a.46.46 0 01-.16.19zm-.06-1.16s.07-.1.25-.17zm.46 0h-.16c-.01 0 0-.15 0-.16a.13.13 0 01.18.09s0 .06-.04.08zm.08.89a.19.19 0 01.13-.28.2.2 0 01-.15.29zm0-.85l.25-.16s-.08.11-.26.17zm.26.75h.25a.14.14 0 00.11 0l-.11.11zm.52 1.27h-.16l.25-.17v.07c.03.04-.01.08-.1.11zm.16 0a.14.14 0 01.09-.19.13.13 0 01-.1.22zm.08-.64l-.25-.07h.14a.11.11 0 01.11 0 .14.14 0 00.11 0zm.24.68a.2.2 0 01.13-.28.19.19 0 01-.14.31zm.23 0a.12.12 0 01.09-.18.13.13 0 01-.1.2zm.08-.63l-.19-.07H173.3zm.32 0a.14.14 0 01.09-.19.13.13 0 01-.1.25zm.09-1.26s0-.08.11-.11.15 0 .16 0l-.24.16zm2.74 2.25a5.94 5.94 0 01-1-.06l-1-.18a1.43 1.43 0 01-.6-.21 2.43 2.43 0 01.69-.09 9.19 9.19 0 011 0 5.88 5.88 0 011 .14 1 1 0 01.6.29 2.49 2.49 0 01-.7.17zm1-.19a.2.2 0 01-.13.28.19.19 0 01.08-.22zm-.06.71v-.07s0-.08.11-.11.14 0 .16 0zm3.18.8v-.07c0-.05 0-.09.11-.12s.14 0 .16 0z"/></g></g></svg>