<svg width="17" height="17" xmlns="http://www.w3.org/2000/svg" xmlns:xlink="http://www.w3.org/1999/xlink"><defs><path id="a" d="M0 .0002h16.2v16.992H0z"/></defs><g fill="none" fill-rule="evenodd"><mask id="b" fill="#fff"><use xlink:href="#a"/></mask><path d="M16.2007 6.2648c-.098 0-.145-.072-.145-.217l.145-.143v.36zm-.361.144c-.047 0-.071-.047-.071-.144 0-.096.024-.145.071-.145.095 0 .144.049.144.145 0 .097-.049.144-.144.144zm-.287-.792c-.049 0-.073-.047-.073-.144 0-.096.024-.145.073-.145.095 0 .144.049.144.145 0 .097-.049.144-.144.144zm-.145.288c0 .048-.023.072-.072.072-.096 0-.143-.048-.143-.145 0-.046.024-.072.072-.072l.143.145zm-.359-.432v-.145h.216l-.216.145zm.504 2.304h-.145l-.504-.433h.361c.19 0 .288.098.288.288v.145zm-.649-2.017c-.049 0-.072-.047-.072-.143 0-.096.023-.144.072-.144.096 0 .145.048.145.144 0 .096-.049.143-.145.143zm0 2.664c0 .049-.023.072-.072.072-.047 0-.07-.023-.07-.072 0-.096.023-.143.07-.143.049 0 .072.047.072.143zm-.142-2.951c-.049 0-.073-.048-.073-.145 0-.095.024-.143.073-.143.093 0 .142.048.142.143 0 .097-.049.145-.142.145zm-.145 2.159c-.049 0-.072-.047-.072-.143 0-.096.023-.145.072-.145.096 0 .145.049.145.145 0 .096-.049.143-.145.143zm.145 1.08l-.29-.143h.145l.145.143zm-.29-.288c-.048 0-.072-.047-.072-.143 0-.096.024-.145.072-.145.096 0 .145.049.145.145 0 .096-.049.143-.145.143zm-.144 2.809c-.047 0-.072-.048-.072-.145 0-.095.025-.143.072-.143.096 0 .144.048.144.143 0 .097-.048.145-.144.145zm0-3.889c-.047 0-.072-.047-.072-.143 0-.096.025-.144.072-.144.096 0 .144.048.144.144 0 .096-.048.143-.144.143zm-.143-1.584c-.097 0-.144-.047-.144-.143l.144-.144v.287zm-.216 1.441v-.361c.095 0 .144.049.144.145l-.144.216zm-.145-.792c-.047 0-.072-.047-.072-.144 0-.096.025-.145.072-.145.096 0 .145.049.145.145 0 .097-.049.144-.145.144zm0-.936c0 .048-.023.071-.072.071-.047 0-.071-.023-.071-.071 0-.096.024-.145.071-.145.049 0 .072.049.072.145zm.145 2.951v-.143h-.432l.287.143h.145zm-.288-1.367l-.289-.217h.289v.217zm-.289 2.447c-.048 0-.072-.023-.072-.071 0-.048.024-.072.072-.072.096 0 .145.024.145.072 0 .048-.049.071-.145.071zm0-4.176c-.048 0-.072-.023-.072-.072 0-.047.024-.071.072-.071.096 0 .145.024.145.071 0 .049-.049.072-.145.072zm1.08 3.888c-.095-.19-.251-.347-.468-.468-.215-.119-.42-.179-.612-.179h-.144c.24.096.443.228.613.395.168.169.371.252.611.252zm-1.439-1.439c.096 0 .143-.048.143-.145l-.143-.143v.288zm0-1.872v-.288c.096 0 .143.048.143.143l-.143.145zm1.439-.288c-.144-.144-.419-.325-.828-.54-.408-.216-.611-.444-.611-.684.287 0 .527.107.719.323.191.217.433.324.72.324v.577zm-1.584 2.952c.096 0 .145-.048.145-.145 0-.096-.049-.143-.145-.143-.048 0-.072.047-.072.143 0 .097.024.145.072.145zm.145-1.368l-.289-.144h.144l.145.144zm-.289 1.656c.096 0 .144-.048.144-.145 0-.095-.048-.143-.144-.143-.047 0-.072.048-.072.143 0 .097.025.145.072.145zm.289-2.16c-.098-.096-.17-.192-.217-.288-.049-.096-.119-.192-.215-.289v-.215c.287.192.432.408.432.647v.145zm-.432 0c-.048 0-.072-.047-.072-.145 0-.095.024-.143.072-.143.096 0 .143.048.143.143 0 .098-.047.145-.143.145zm-.144 3.095c.096 0 .144-.047.144-.143 0-.096-.048-.145-.144-.145-.049 0-.072.049-.072.145 0 .096.023.143.072.143zm-.145-4.464c-.095 0-.144-.046-.144-.143l.144-.145v.288zm-.215.577v-.288c.094 0 .143.048.143.143l-.143.145zm0 2.088v-.216h-.144l.144.216zm.36-1.728c-.145-.048-.313-.168-.504-.36.191.096.359.215.504.36zm-.504 3.527c.096 0 .144-.047.144-.143 0-.096-.048-.145-.144-.145-.049 0-.072.049-.072.145 0 .096.023.143.072.143zm.144-4.464l-.289-.288h.145l.144.288zm-.289 1.224c-.048 0-.072-.047-.072-.143 0-.096.024-.144.072-.144.096 0 .145.048.145.144 0 .096-.049.143-.145.143zm.145-3.096l-.289-.143.433.143h-.144zm-.289 2.449c-.047 0-.072-.047-.072-.145 0-.095.025-.143.072-.143.096 0 .144.048.144.143 0 .098-.048.145-.144.145zm0 1.799c0-.143-.072-.215-.215-.215 0 .143.072.215.215.215zm-.143-2.087c-.049 0-.072-.047-.072-.144 0-.096.023-.145.072-.145.096 0 .143.049.143.145 0 .097-.047.144-.143.144zm0-1.081c-.049 0-.072-.046-.072-.143 0-.096.023-.145.072-.145.096 0 .143.049.143.145 0 .097-.047.143-.143.143zm0-.935c-.049 0-.072-.048-.072-.145 0-.095.023-.143.072-.143.096 0 .143.048.143.143 0 .097-.047.145-.143.145zm.287 5.615c-.095-.096-.168-.155-.216-.18-.047-.023-.12-.083-.215-.179l.287.359h.144zm-.431-3.311c-.049 0-.072-.047-.072-.145 0-.095.023-.143.072-.143.095 0 .144.048.144.143 0 .098-.049.145-.144.145zm-.145-.865c-.095 0-.144-.072-.144-.215l.144-.144v.359zm0-1.727c-.095 0-.144-.025-.144-.072l.144-.073c.096 0 .145.026.145.073s-.049.072-.145.072zm-.215 2.015v-.143h.215l-.215.143zm0 4.105c0-.145-.072-.217-.216-.217 0 .145.072.217.216.217zm-.144-4.608c-.049 0-.072-.047-.072-.144 0-.096.023-.145.072-.145.096 0 .144.049.144.145 0 .097-.048.144-.144.144zm-.145-.432c-.048 0-.072-.048-.072-.145 0-.095.024-.143.072-.143.096 0 .145.048.145.143 0 .097-.049.145-.145.145zm-.144.288c-.047 0-.07-.048-.07-.145 0-.095.023-.143.07-.143.096 0 .144.048.144.143 0 .097-.048.145-.144.145zm-.143.936c-.049 0-.072-.024-.072-.073 0-.047.023-.071.072-.071.096 0 .143.024.143.071 0 .049-.047.073-.143.073zm.143-2.665c-.096 0-.18-.023-.252-.072-.07-.047-.156-.071-.252-.071v-.145c.144.097.361.193.648.288h-.144zm-.287 1.584c-.145 0-.313-.046-.504-.143h.504v.143zm-.504-1.727l-.289-.145h.289v.145zm-.145 13.248h.145l-.289-.145h-.143l.287.145zm-.287-12.168v-.145l.143.145h-.143zm-.217 1.584l.217.144c0-.047.024-.12.072-.216.047-.096.071-.168.071-.216v-.36l-.36.648zm.36-1.08h-.215c-.098 0-.145-.048-.145-.145h.36v.145zm-.36-1.441c.528.289 1.141.541 1.836.756.696.216 1.237.589 1.621 1.117-.338-.144-.72-.361-1.152-.649-.432-.287-.816-.432-1.152-.432l-.217.145c0-.24-.108-.396-.324-.469-.215-.071-.42-.107-.612-.107v-.361zm0-.431c0 .048-.025.071-.072.071-.049 0-.072-.023-.072-.071 0-.096.023-.145.072-.145.047 0 .072.049.072.145zm-.144 1.368c-.047 0-.07-.048-.07-.145 0-.095.023-.143.07-.143.096 0 .144.048.144.143 0 .097-.048.145-.144.145zm0 2.951l-.143-.288v.145l.143.143zm-.143-3.888c-.049 0-.072-.046-.072-.143 0-.096.023-.145.072-.145.096 0 .143.049.143.145 0 .097-.047.143-.143.143zm0 12.672c0-.143-.072-.215-.217-.215 0 .143.073.215.217.215zm-.289-11.735c-.049 0-.072-.048-.072-.145 0-.095.023-.143.072-.143.096 0 .145.048.145.143 0 .097-.049.145-.145.145zm-.144 2.52h.144v-.289l-.144.289zm-.071-4.176c.143 0 .215.071.215.216-.144 0-.215-.073-.215-.216zm.215.431l-.287-.143h.143l.144.143zm-.287 12.601c.096 0 .143-.024.143-.072 0-.048-.047-.073-.143-.073-.098 0-.144.025-.144.073l.144.072zm-.217-10.656c0-.145-.072-.216-.215-.216 0 .143.071.216.215.216zm-.287 2.088c.096 0 .143-.047.143-.145 0-.095-.047-.143-.143-.143-.049 0-.072.048-.072.143 0 .098.023.145.072.145zm.143-4.176l-.287-.145h.144l.143.145zm-.432.935c-.049 0-.072-.046-.072-.143 0-.096.023-.145.072-.145.096 0 .145.049.145.145 0 .097-.049.143-.145.143zm-.142 1.584c.238.145.466.229.683.252.215.026.443.085.684.181l-.145-.288.289-.145-1.369-.504-.142.504zm0-.647v-.288c-.098 0-.145.048-.145.143l.145.145zm-.217-.937v-.288c.095 0 .144.049.144.145l-.144.143zm.217-1.584c0 .097-.026.145-.073.145l-.144-.145c0-.046.047-.072.144-.072.047 0 .073.026.073.072zm-.217 2.664c.095 0 .144-.023.144-.072l-.144-.071c-.049 0-.073.024-.073.071 0 .049.024.072.073.072zm-.145-1.872c0-.288.119-.431.362-.431 0 .288.119.421.359.395.24-.023.359.085.359.324-.144 0-.312-.01-.504-.036-.191-.023-.336-.107-.431-.252l-.145.145v-.145zm0 2.376c.096 0 .145-.046.145-.143-.049-.048-.098-.072-.145-.072l-.072.072c0 .097.023.143.072.143zm-.144.577v-.144h.144l.362.144h-.506zm0-3.745c-.047 0-.071-.046-.071-.143 0-.096.024-.145.071-.145.095 0 .144.049.144.145 0 .097-.049.143-.144.143zm.648 4.393c0-.145.096-.217.289-.217.096 0 .192.013.287.036.096.026.168.036.217.036-.242-.143-.48-.311-.721-.503-.24-.192-.529-.289-.863-.289 0 .289.131.458.395.504.263.049.396.193.396.433zm-.935 1.224c.095 0 .144-.047.144-.145 0-.095-.049-.143-.144-.143-.049 0-.073.048-.073.143 0 .098.024.145.073.145zm-.145-1.872c.096 0 .145-.024.145-.073 0-.047-.049-.071-.145-.071-.096 0-.143.024-.143.071l.143.073zm0-2.808c-.096 0-.143-.048-.143-.145l.143-.143v.288zm0-1.08c-.096 0-.143-.048-.143-.145l.143-.143v.288zm-.215 5.615v-.143h-.144l.144.143zm-.144-1.871c.095 0 .144-.024.144-.072 0-.048-.049-.073-.144-.073-.049 0-.073.025-.073.073 0 .048.024.072.073.072zm0-1.08c.095 0 .144-.048.144-.145 0-.095-.049-.143-.144-.143-.049 0-.073.048-.073.143 0 .097.024.145.073.145zm-.145 2.159c.481.192.947.481 1.404.864.455.385.924.577 1.405.577-.385-.335-.817-.66-1.297-.972-.481-.312-.985-.516-1.512-.612v.143zm0-3.743c-.049 0-.072-.048-.072-.145 0-.095.023-.143.072-.143.096 0 .145.048.145.143 0 .097-.049.145-.145.145zm-.072-.576c.144 0 .217.071.217.216-.145 0-.217-.073-.217-.216zm-.215 2.015h.145l-.145-.143v.143zm-.289-3.311c-.096 0-.143-.048-.143-.145l.143-.143v.288zm.289 5.472l-.289-.144h-.359l.648.144zm0-1.224c-.098 0-.205-.036-.324-.108-.121-.073-.229-.156-.324-.252h-.145c.096.143.205.288.324.431.119.145.276.217.469.217v-.288zm1.367 9c0-.096-.107-.228-.324-.397-.215-.168-.467-.324-.756-.467-.287-.145-.564-.276-.828-.397-.264-.119-.443-.18-.539-.18.432.242.84.504 1.225.792.382.289.791.553 1.222.792v-.143zm-3.096-1.441c.096 0 .145-.046.145-.143 0-.096-.049-.145-.145-.145-.048 0-.072.049-.072.145 0 .097.024.143.072.143zm-.648-7.271c.096 0 .145-.048.145-.145l-.145-.143v.288zm-1.512 6.048c.096 0 .145-.048.145-.145 0-.095-.049-.143-.145-.143-.048 0-.072.048-.072.143 0 .097.024.145.072.145zm.936-6.84c0-.24.06-.601.182-1.08.119-.48.275-.973.466-1.477.192-.504.397-.959.612-1.368.216-.407.42-.659.613-.756.144.53.443.961.9 1.296.455.337.924.601 1.403.792v.145c-.287 0-.565-.06-.827-.181-.265-.119-.566-.18-.9-.18l-.144.216v.145l.144.143.215-.288.289.145c-.098 0-.145.12-.145.359v.36h.145l.145-.143.646.143-.215.216.215.145h.145l.144-.361v-.143c.191.143.563.395 1.115.756.551.359.852.588.901.683-.098.049-.205.049-.324 0-.122-.046-.229-.095-.325-.143.145.143.299.3.469.468.168.169.371.252.611.252l.073-.073-.36-.216h.143c.289 0 .648.073 1.08.216.434.145.695.385.793.721-.24-.24-.408-.36-.504-.36-.049 0-.084.012-.107.036-.026.024-.086.036-.182.036v.143l-.287-.288v.288c0 .242.131.397.396.468.262.073.491.109.684.109v-.145l.359.505.145-.145c.095.385.443.709 1.043.972.599.265 1.068.444 1.404.54v.145h-.432c.432.24.768.504 1.008.792.24.288.362.696.362 1.223l-.434-.288v.145c-.191-.096-.359-.192-.504-.288-.143-.096-.336-.145-.576-.145-.096 0-.143.036-.143.109 0 .072-.072.108-.217.108-.048 0-.083-.012-.107-.036-.025-.024-.084-.036-.18-.036.192.192.36.288.504.288.143 0 .334.048.576.143v-.288c.096.193.239.324.432.397.192.072.359.156.504.252l-.145.143.29.288h-.145c-.289 0-.576-.047-.865-.143-.287-.096-.576-.192-.864-.288v.143c0 .241.217.421.649.54.432.121.695.301.791.54h-.359c-.241 0-.469-.072-.684-.215-.217-.144-.445-.216-.684-.216.239.24.504.444.791.612.289.168.551.372.793.611h-.793l.577.576c0 .289-.073.637-.217 1.044-.143.409-.322.805-.539 1.189-.217.385-.481.72-.793 1.008-.313.288-.612.457-.899.504v.143c-.144-.096-.3-.143-.468-.143h-.469l.144.143.936.361h-.287c-.481 0-.84-.216-1.08-.649h-.217l-.143.145c-.769-.335-1.502-.732-2.197-1.189-.695-.455-1.404-.911-2.123-1.367-.721-.456-1.441-.876-2.16-1.261-.721-.384-1.512-.671-2.377-.863l.144-.145v-.143c-.24-.096-.48-.252-.72-.469-.241-.216-.36-.468-.36-.756 0-.478.108-.923.325-1.332.216-.407.324-.851.324-1.332.191 0 .347-.131.469-.395.119-.264.238-.564.359-.901.119-.335.275-.635.467-.899.191-.264.457-.397.793-.397h.216l-.433-.359zm-2.52 6.552c-.095 0-.144-.048-.144-.145 0-.095.049-.143.144-.143.096 0 .145.048.145.143 0 .097-.049.145-.145.145z" fill="#6515DD" mask="url(#b)"/></g></svg>