<svg width="23" height="36" xmlns="http://www.w3.org/2000/svg" xmlns:xlink="http://www.w3.org/1999/xlink"><defs><path id="a" d="M0 .0003h22.1756v35.279H0z"/></defs><g fill="none" fill-rule="evenodd"><mask id="b" fill="#fff"><use xlink:href="#a"/></mask><path d="M20.8076 8.063c-.048 0-.071-.047-.071-.143 0-.095.023-.144.071-.144.096 0 .145.049.145.144 0 .096-.049.143-.145.143zm-1.728 1.08l.144-.287v-.145h-.144v.432zm-.288-1.08c0 .098.083.17.252.217.168.049.3.072.397.072-.049-.096-.049-.217 0-.361.047-.143.096-.262.143-.36h-.143c-.241 0-.361.145-.361.432h-.288zm0-3.744c.096 0 .145-.047.145-.143 0-.095-.049-.144-.145-.144-.047 0-.072.049-.072.144 0 .096.025.143.072.143zm-.143 5.617c-.049 0-.072-.047-.072-.144 0-.096.023-.145.072-.145.096 0 .143.049.143.145 0 .097-.047.144-.143.144zm-.361 2.809v-.362c.096 0 .144.049.144.145l-.144.217zm-.431-3.098c.143 0 .263.072.359.217.096.144.24.217.433.217.143 0 .226-.11.252-.325.023-.216.036-.371.036-.468h-.145v-.432c-.24 0-.457.072-.647.215-.192.144-.288.338-.288.576zm0 1.512c-.049 0-.072-.047-.072-.143 0-.096.023-.144.072-.144.096 0 .143.048.143.144 0 .096-.047.143-.143.143zm-.288 2.664c-.049-.094-.049-.203 0-.323.047-.119.095-.228.143-.324v.36l-.143.287zm0 1.224c-.049 0-.073-.047-.073-.144 0-.096.024-.143.073-.143.095 0 .143.047.143.143 0 .097-.048.144-.143.144zm-.145-.791v-.144l.145.144h-.145zm-.216-.72v-.36c.096 0 .145.047.145.143l-.145.217zm0-.504v-.145l.216.145h-.216zm-.143 2.304v-.433l.359.289h-.216v.144h-.143zm0 .791c-.049 0-.072-.023-.072-.072 0-.047.023-.072.072-.072.096 0 .143.025.143.072 0 .049-.047.072-.143.072zm-.145-2.447h.145c0 .192-.049.432-.145.719v-.719zm0 2.16c-.048 0-.072-.048-.072-.144 0-.096.024-.145.072-.145.096 0 .145.049.145.145 0 .096-.049.144-.145.144zm0-10.728c.096 0 .145-.047.145-.145 0-.095-.049-.144-.145-.144-.048 0-.072.049-.072.144 0 .098.024.145.072.145zm-.143 11.808c-.049-.095-.049-.205 0-.324.047-.119.095-.228.143-.324v.359l-.143.289zm-.145.432c0 .432-.048.744-.143.936 0-.432.047-.745.143-.936zm-.143-11.953h.143v-.143l-.143.143zm0 5.617v-.289c-.097 0-.145.049-.145.145l.145.144zm-.216 4.535h.216v-.215h-.216v.215zm0-5.183c.143 0 .216-.096.216-.287v-.145l-.216.287v.145zm0 8.568c-.049 0-.072-.023-.072-.072 0-.047.023-.072.072-.072.096 0 .143.025.143.072l-.143.072zm-.288 1.08v-.144l.143.144h-.143zm0-8.713l.143-.287h-.143v.287zm.143-2.447v-.359c-.096 0-.143.046-.143.142v.217h.143zm-.143 10.871c-.049 0-.073-.047-.073-.143 0-.095.024-.144.073-.144.095 0 .143.049.143.144 0 .096-.048.143-.143.143zm-.145.793c-.048 0-.072-.047-.072-.144 0-.047.024-.073.072-.073l.145.073c0 .097-.049.144-.145.144zm-.143-1.873c0-.238.023-.479.071-.719.048-.24.12-.48.217-.72l.288-.288v.143c0 .721-.193 1.346-.576 1.873v-.289zm0 2.592c-.049 0-.073-.047-.073-.143 0-.095.024-.144.073-.144.095 0 .143.049.143.144 0 .096-.048.143-.143.143zm0-4.967c-.049 0-.073-.047-.073-.145 0-.095.024-.144.073-.144.095 0 .143.049.143.144 0 .098-.048.145-.143.145zm-.145 5.473v-.289h.145l-.145.289zm0-12.313h.288v-.145h-.288v.145zm0 7.92c-.097 0-.143-.047-.143-.144l.143-.145v.289zm0-.576c-.097 0-.143-.047-.143-.145l.143-.144v.289zm-.216 5.256v-.287c.096 0 .145.047.145.142l-.145.145zm0-4.465v-.359c.096 0 .145.048.145.144l-.145.215zm0-3.311c.096 0 .145-.048.145-.144l-.145-.145v.289zm0-.576h.216v-.361h-.216v.361zm0 1.871c.096 0 .145-.047.145-.144l-.145-.071c-.048 0-.072.047-.072.143 0 .049.024.072.072.072zm0-5.615c.096 0 .145-.023.145-.072l-.145-.072c-.048 0-.072.025-.072.072 0 .049.024.072.072.072zm0-9.144c-.048 0-.072-.047-.072-.145 0-.047.024-.072.072-.072.096 0 .145.025.145.072l-.145.145zm-.143 18.289v-.145l.359.145h-.359zm.143-1.225c0 .049-.024.072-.072.072-.048 0-.071-.023-.071-.072 0-.096.023-.145.071-.145.048 0 .072.049.072.145zm-.143 5.256c-.049 0-.072-.024-.072-.072 0-.047.023-.073.072-.073.095 0 .143.026.143.073 0 .048-.048.072-.143.072zm0-.432c-.049 0-.072-.047-.072-.144 0-.096.023-.145.072-.145.095 0 .143.049.143.145 0 .097-.048.144-.143.144zm0-6.408c-.049 0-.072-.023-.072-.072 0-.047.023-.073.072-.073.095 0 .143.026.143.073 0 .049-.048.072-.143.072zm-.145 7.199c-.048 0-.072-.047-.072-.142 0-.049.024-.073.072-.073l.145.073c0 .095-.049.142-.145.142zm0-6.695c-.048 0-.072-.047-.072-.145 0-.095.024-.144.072-.144.096 0 .145.049.145.144 0 .098-.049.145-.145.145zm0-1.584c.096 0 .145-.047.145-.145 0-.095-.049-.144-.145-.144-.048 0-.072.049-.072.144 0 .098.024.145.072.145zm-.143-4.176c0-.191.143-.336.431-.432l-.288-.361c-.096.289-.143.504-.143.649v.144zm0 6.047c-.049 0-.073-.047-.073-.143 0-.095.024-.144.073-.144.095 0 .143.049.143.144 0 .096-.048.143-.143.143zm0-1.367c.095 0 .143-.024.143-.072 0-.047-.048-.073-.143-.073-.049 0-.073.026-.073.073 0 .048.024.072.073.072zm0-2.16c.095 0 .143-.047.143-.145-.048-.047-.096-.072-.143-.072l-.073.072c0 .098.024.145.073.145zm-.145 7.703c0-.19.036-.574.109-1.151.072-.576.227-.865.467-.865 0 .77-.143 1.512-.431 2.233l-.145-.217zm.288-6.983c0-.191-.096-.336-.288-.433v.144c.096.194.192.336.288.432v-.143zm-.431 3.096l.143-.144v.144h-.143zm0-5.545h.143v-.504l-.143.362v.142zm0 12.889c-.049 0-.073-.047-.073-.145 0-.095.024-.144.073-.144.095 0 .143.049.143.144 0 .098-.048.145-.143.145zm0-3.744c-.049 0-.073-.047-.073-.145 0-.096.024-.142.073-.142.095 0 .143.046.143.142 0 .098-.048.145-.143.145zm0-3.096c-.049 0-.073-.047-.073-.145 0-.095.024-.144.073-.144.095 0 .143.049.143.144 0 .098-.048.145-.143.145zm0-4.68c.095 0 .143-.049.143-.144 0-.096-.048-.145-.143-.145-.049 0-.073.049-.073.145 0 .095.024.144.073.144zm0-4.033c.095 0 .143-.047.143-.143 0-.095-.048-.144-.143-.144-.049 0-.073.049-.073.144 0 .096.024.143.073.143zm-.145 12.602c-.097 0-.143-.049-.143-.145l.143-.144v.289zm0-.289c-.097 0-.143-.073-.143-.217l.143-.143v.36zm0-2.233c-.097 0-.143-.047-.143-.142l.143-.145v.287zm0-9.935V9c-.097 0-.143.047-.143.143l.143.145zm-.216 11.015l.216-.431v.287l-.216.361v-.217zm0-2.592v-.359c.096 0 .145.049.145.145l-.145.214zm0-3.888l.216-.287c0-.336-.071-.551-.216-.649v.936zm.216-1.223c.096-.191.145-.361.145-.504-.242 0-.361.096-.361.287l.216.217zm-.216-2.664l.216-.504h-.216v.504zm-.143 11.16c-.049 0-.073-.023-.073-.072 0-.047.024-.072.073-.072.095 0 .143.025.143.072 0 .049-.048.072-.143.072zm0-6.84c.095 0 .143-.023.143-.072 0-.047-.048-.072-.143-.072-.049 0-.073.025-.073.072 0 .049.024.072.073.072zm0-.937c.095 0 .143-.047.143-.143 0-.095-.048-.144-.143-.144-.049 0-.073.049-.073.144 0 .096.024.143.073.143zm-.145-2.735h.145v-.503l-.145.287v.216zm0 11.303c-.048 0-.071-.047-.071-.142 0-.096.023-.145.071-.145.096 0 .145.049.145.145 0 .095-.049.142-.145.142zm0-2.664c.096 0 .145-.047.145-.142 0-.096-.049-.145-.145-.145-.048 0-.071.049-.071.145 0 .095.023.142.071.142zm0-1.08c.096 0 .145-.047.145-.142 0-.096-.049-.145-.145-.145-.048 0-.071.049-.071.145 0 .095.023.142.071.142zm0-.287c.096 0 .145-.047.145-.145 0-.095-.049-.144-.145-.144-.048 0-.071.049-.071.144 0 .098.023.145.071.145zm0-6.984c0-.096-.024-.145-.071-.145-.049 0-.072.049-.072.145 0 .048.023.072.072.072.047 0 .071-.024.071-.072zm-.143 17.064c-.049 0-.073-.023-.073-.072 0-.047.024-.072.073-.072.095 0 .143.025.143.072 0 .049-.048.072-.143.072zm0-9.648c.095 0 .143-.024.143-.073 0-.047-.048-.072-.143-.072-.049 0-.073.025-.073.072 0 .049.024.073.073.073zm0-1.08c.095 0 .143-.047.143-.145 0-.096-.048-.143-.143-.143-.049 0-.073.047-.073.143 0 .098.024.145.073.145zm.431 5.615c0-.479.168-.887.504-1.223v.145c0 .623-.133 1.211-.395 1.763-.265.551-.494 1.092-.685 1.619v-.144c0-.383.072-.766.217-1.15.143-.385.167-.768.071-1.153l.288.143zm-.431-8.567v-.144l-.145-.289.145.433zm-.145-2.953h.145v-.144l-.145.144zm-.143 12.168l.143-.215v.215h-.143zm0 2.016c-.097 0-.145-.024-.145-.07l.145-.073c.095 0 .143.024.143.073 0 .046-.048.07-.143.07zm0-1.584c-.097 0-.145-.047-.145-.143l.145-.144v.287zm0-5.902c.095 0 .143-.026.143-.073s-.048-.072-.143-.072c-.097 0-.145.025-.145.072l.145.073zm0-1.514v-.36c-.097 0-.145.049-.145.145l.145.215zm0-6.119v-.287c-.097 0-.145.046-.145.142l.145.145zm-.216 16.992c.047-.145.119-.348.216-.611.095-.264.191-.444.288-.541v.359c0 .098-.013.252-.037.469-.024.216-.108.324-.251.324h-.216zm.216-1.584l-.073.072c-.096 0-.143-.023-.143-.072 0-.096.047-.145.143-.145.048.049.073.098.073.145zm0-4.537c0 .097-.025.144-.073.144l-.143-.144c0-.047.047-.071.143-.071.048 0 .073.024.073.071zm-.216-6.479c.095 0 .143-.072.143-.217l-.143-.144v.361zm-.145.287c.096 0 .145-.023.145-.072 0-.047-.049-.072-.145-.072-.048 0-.071.025-.071.072 0 .049.023.072.071.072zm-.143 9.504c.095-.095.155-.179.179-.252.024-.072.06-.154.109-.252l-.145.504h-.143zm0-2.015c0-.241.095-.551.288-.936v.791l.359.145-.504.431.072-.215c0-.144-.072-.216-.215-.216zm.143 2.808c-.192 0-.288-.119-.288-.361v-.143l.288.504zm-.143-8.424l.647-1.584.145-.144-.145-.576c-.192.336-.349.683-.468 1.043-.12.361-.228.732-.324 1.117l.145.144zm-.145 9.936c-.048 0-.071-.023-.071-.072 0-.047.023-.073.071-.073.096 0 .145.026.145.073 0 .049-.049.072-.145.072zm0-3.889c-.048 0-.071-.047-.071-.144 0-.094.023-.143.071-.143.096 0 .145.049.145.143 0 .097-.049.144-.145.144zm0-.791c-.048 0-.071-.049-.071-.144 0-.096.023-.145.071-.145.096 0 .145.049.145.145 0 .095-.049.144-.145.144zm-.143 5.76v-.289h.143l-.143.289zm.143-14.4c.191 0 .348-.276.469-.828.119-.551.18-.901.18-1.043-.242.24-.409.527-.504.863-.097.336-.193.672-.288 1.008h.143zm-.143 17.064c-.049 0-.073-.047-.073-.144 0-.096.024-.145.073-.145.095 0 .143.049.143.145 0 .097-.048.144-.143.144zm0-8.064c-.049 0-.073-.024-.073-.073 0-.046.024-.072.073-.072.095 0 .143.026.143.072 0 .049-.048.073-.143.073zm0-6.409c.095 0 .143-.046.143-.144 0-.096-.048-.143-.143-.143-.049 0-.073.047-.073.143 0 .098.024.144.073.144zm0 7.633l-.145-.289.433.145-.145.144h-.143zm-.145-6.049h.288v-.359h-.288v.359zm.145-3.888c0-.094-.025-.143-.073-.143-.048 0-.072.049-.072.143 0 .049.024.072.072.072.048 0 .073-.023.073-.072zm-.361 17.064l.216-.287v.649l-.216-.362zm0-1.728v-.432h.216l-.216.432zm0-4.967c.145 0 .216.072.216.215l-.216-.215zm0-11.16l.361-.649v-.144c-.097.097-.18.205-.252.324-.073.121-.109.229-.109.324v.145zm0-12.6V.143c.096 0 .145.049.145.145l-.145.144zm0 17.569c.096 0 .145-.026.145-.073l-.145-.072c-.048 0-.071.025-.071.072 0 .047.023.073.071.073zm-.143 13.967h.144v-.432h-.144v.432zm.792-4.032l.288-.289v.145c0 .097-.013.263-.036.503-.025.241-.073.493-.145.756-.071.266-.156.504-.252.721-.097.215-.192.324-.288.324-.24 0-.359-.144-.359-.431h.359l.433-1.729zm-.792-.289v-.143l.143-.144v.144l-.143.143zm0 .434c-.049 0-.073-.049-.073-.145 0-.096.024-.144.073-.144.095 0 .143.048.143.144 0 .096-.048.145-.143.145zm-.145 2.664v-.434l.145.145-.145.289zm0-5.618c0-.046.024-.119.072-.214.047-.096.073-.168.073-.217l.359.791-.359-.143-.145.143v-.36zm0-6.48c.096 0 .145-.096.145-.287v-.072h-.145v.359zm0-4.824c.096 0 .145-.047.145-.143 0-.096-.049-.144-.145-.144-.048 0-.071.048-.071.144 0 .096.023.143.071.143zm0-13.535c-.048 0-.071-.047-.071-.145 0-.096.023-.143.071-.143.096 0 .145.047.145.143 0 .098-.049.145-.145.145zm-.143 18.793c.095 0 .143-.026.143-.073 0-.049-.048-.072-.143-.072-.049 0-.073.023-.073.072 0 .047.024.073.073.073zm0-18.649c-.049 0-.073-.047-.073-.144 0-.096.024-.145.073-.145.095 0 .143.049.143.145 0 .097-.048.144-.143.144zm-.145 26.135v-.143l.145-.648h.143v.287l.145.361-.433.143zm.145 5.545c0 .336-.049.601-.145.791-.048-.096-.048-.227 0-.395s.096-.3.145-.396zm-.145-6.985c-.048 0-.071-.046-.071-.144 0-.096.023-.143.071-.143.096 0 .145.047.145.143 0 .098-.049.144-.145.144zm0-10.728c.096 0 .145-.024.145-.07 0-.049-.049-.073-.145-.073-.048 0-.071.024-.071.073 0 .046.023.07.071.07zm-.144 19.441v-.289l.144.289h-.144zm0-17.209c.096-.24.276-.672.54-1.295.264-.623.396-1.033.396-1.224-.287.191-.516.576-.684 1.152-.169.576-.252 1.033-.252 1.367zm-.143 18.145c-.098 0-.145-.047-.145-.145l.145-.144v.289zm0-4.824c-.098 0-.145-.047-.145-.145l.145-.142v.287zm0-12.889v-.287c-.098 0-.145.049-.145.144l.145.143zm0-1.871c.095 0 .143-.024.143-.072 0-.047-.048-.073-.143-.073-.098 0-.145.026-.145.073l.145.072zm-.217 2.375c.096 0 .145-.07.145-.215l-.145-.144v.359zm-.143 10.728c0-.24.059-.406.179-.503.119-.096.228-.241.324-.432v.287c0 .145-.036.289-.108.434-.071.142-.204.214-.395.214zm0 1.512c-.049 0-.073-.047-.073-.142 0-.096.024-.145.073-.145.095 0 .143.049.143.145 0 .095-.048.142-.143.142zm-.145-11.806v.142l.145-.287v-.145l-.145.29zm-.144 11.158l.144-.287v.287h-.144zm0-1.078c-.048 0-.072-.026-.072-.073 0-.049.024-.072.072-.072.096 0 .144.023.144.072 0 .047-.048.073-.144.073zm-.072-.577c.145 0 .216.071.216.215-.144 0-.216-.072-.216-.215zm-.071 2.448v-.145l.143-.142v.142l-.143.145zm0 2.664c-.049 0-.072-.047-.072-.145 0-.096.023-.142.072-.142.095 0 .143.046.143.142 0 .098-.048.145-.143.145zm0-2.016c-.049 0-.072-.047-.072-.144 0-.096.023-.145.072-.145.095 0 .143.049.143.145 0 .097-.048.144-.143.144zm0-11.519c.095 0 .143-.049.143-.145 0-.096-.048-.144-.143-.144-.049 0-.072.048-.072.144 0 .096.023.145.072.145zm-.145 15.982c0-.096.012-.262.036-.504.024-.238.109-.359.252-.359 0 .24-.096.601-.288 1.08v-.217zm0-3.672c-.096 0-.143-.096-.143-.287l.143-.217v.504zm0-6.264c.096 0 .145-.023.145-.072 0-.047-.049-.072-.145-.072-.096 0-.143.025-.143.072l.143.072zm-.215.504c.095 0 .143-.023.143-.072l-.143-.072c-.049 0-.073.025-.073.072 0 .049.024.072.073.072zm-.289 1.225c.096 0 .144-.047.144-.145 0-.095-.048-.144-.144-.144-.048 0-.072.049-.072.144 0 .098.024.145.072.145zm-.143 7.92c-.049 0-.072-.047-.072-.145 0-.095.023-.144.072-.144.095 0 .143.049.143.144 0 .098-.048.145-.143.145zm-.145-4.32c.096 0 .145-.024.145-.073 0-.047-.049-.072-.145-.072-.047 0-.072.025-.072.072 0 .049.025.073.072.073zm-.36 4.031c.145-.287.288-.563.433-.828.143-.262.262-.563.359-.899v.287c0 .194-.024.481-.071.866-.049.384-.216.574-.504.574h-.217zm0-4.176c.096 0 .145-.047.145-.143l-.145-.072c-.048 0-.071.047-.071.143 0 .049.023.072.071.072zm-.144-1.295c.096 0 .144-.047.144-.144 0-.096-.048-.145-.144-.145-.048 0-.072.049-.072.145 0 .097.024.144.072.144zm-.143.649c.095 0 .143-.026.143-.073 0-.049-.048-.072-.143-.072-.049 0-.072.023-.072.072 0 .047.023.073.072.073zm-.145.431c.096 0 .145-.023.145-.072 0-.047-.049-.072-.145-.072-.047 0-.072.025-.072.072 0 .049.025.072.072.072zm0-1.08c.096 0 .145-.047.145-.144 0-.096-.049-.145-.145-.145-.047 0-.072.049-.072.145 0 .097.025.144.072.144zm.145-.935h-.288c0 .095.047.142.143.142l.145-.142zm-.145-2.45c0-.095-.024-.144-.072-.144-.048 0-.071.049-.071.144 0 .049.023.073.071.073.048 0 .072-.024.072-.073zm-.143 4.969v-.144h-.145l.145.144zm-.145.432c.096 0 .145-.024.145-.073 0-.046-.049-.072-.145-.072-.048 0-.072.026-.072.072 0 .049.024.073.072.073zm0-6.192c.096 0 .145-.048.145-.144 0-.096-.049-.145-.145-.145-.048 0-.072.049-.072.145 0 .096.024.144.072.144zm0 6.696v-.145h-.143l.143.145zm0-4.393c.096-.287.145-.527.145-.719v-.504c-.193.336-.288.745-.288 1.223h.143zm-.359 5.473c.143-.145.216-.36.216-.649v-.287c-.145.096-.216.313-.216.649v.287zm0-2.52c.095 0 .143-.023.143-.072l-.143-.072c-.049 0-.072.025-.072.072 0 .049.023.072.072.072zm0-1.224c.095 0 .143-.024.143-.073l-.143-.072c-.049 0-.072.025-.072.072 0 .049.023.073.072.073zm-.145 5.759c-.047 0-.072-.023-.072-.072 0-.047.025-.072.072-.072.096 0 .145.025.145.072 0 .049-.049.072-.145.072zm0-2.951c.096 0 .145-.047.145-.144 0-.096-.049-.145-.145-.145-.047 0-.072.049-.072.145 0 .097.025.144.072.144zm0-4.824c.096 0 .145-.047.145-.145 0-.095-.049-.144-.145-.144-.047 0-.072.049-.072.144 0 .098.025.145.072.145zm-.143 1.728c.096 0 .143-.025.143-.072 0-.047-.047-.072-.143-.072-.049 0-.072.025-.072.072 0 .047.023.072.072.072zm0-.792c.096 0 .143-.024.143-.073 0-.047-.047-.072-.143-.072-.049 0-.072.025-.072.072 0 .049.023.073.072.073zm.143 2.664h.145c-.098-.145-.157-.348-.181-.612-.024-.263-.011-.492.036-.685-.096.193-.169.373-.215.541-.049.168-.073.373-.073.611l.288.145zm-.288-1.297c.096 0 .145-.047.145-.143 0-.096-.049-.144-.145-.144-.048 0-.072.048-.072.144 0 .096.024.143.072.143zm0-.287c.096 0 .145-.047.145-.145 0-.096-.049-.143-.145-.143-.048 0-.072.047-.072.143 0 .098.024.145.072.145zm-.143 2.16c.095.144.288.217.576.217-.098-.336-.241-.504-.433-.504l-.143.287zm-.504-.432c.096-.191.143-.457.143-.793h-.143v.793zm0 4.031c-.049 0-.072-.047-.072-.144 0-.096.023-.143.072-.143.096 0 .143.047.143.143 0 .097-.047.144-.143.144zm-.288-.791c.095 0 .143-.048.143-.144 0-.096-.048-.145-.143-.145-.049 0-.073.049-.073.145 0 .096.024.144.073.144zm0-1.728c.095-.383.143-.672.143-.863v-.362l-.288.576c-.096.194-.143.409-.143.649h.288zm-.288.648c-.097 0-.145-.047-.145-.144l.145-.145v.289zm0-3.095c.095 0 .143-.026.143-.073 0-.049-.048-.072-.143-.072-.097 0-.145.023-.145.072l.145.073zm-.216.791c.095 0 .143-.073.143-.217l-.143-.143v.36zm0-.36c.095 0 .143-.047.143-.144l-.143-.145v.289zm-.145-17.064c.096-.145.18-.276.252-.397.073-.119.109-.252.109-.396v-.143c-.097.096-.181.215-.252.36-.073.144-.109.289-.109.431v.145zm0 17.713c.096 0 .145-.049.145-.145 0-.096-.049-.144-.145-.144-.048 0-.072.048-.072.144 0 .096.024.145.072.145zm-.431-16.346c.095-.191.143-.432.143-.719-.096.143-.143.385-.143.719zm-.937 20.088v-.647h.145l-.145.647zm-.143-17.424c.191-.383.359-.742.504-1.08.143-.334.288-.695.431-1.08v-.287c-.624.72-.935 1.537-.935 2.447zm-.361.289l-.576 1.871h.145c.095-.287.191-.576.288-.863.095-.289.216-.551.359-.793v-.359l-.216.144zm-2.015 5.615c.143 0 .215-.095.215-.287v-.144l-.215.287v.144zm-.145.649c.096 0 .145-.024.145-.073 0-.046-.049-.072-.145-.072-.048 0-.071.026-.071.072 0 .049.023.073.071.073zm-.288 1.08c.096 0 .145-.024.145-.072 0-.047-.049-.073-.145-.073-.048 0-.071.026-.071.073 0 .048.023.072.071.072zm-.792 2.447c.096 0 .145-.047.145-.143 0-.095-.049-.144-.145-.144-.048 0-.071.049-.071.144 0 .096.023.143.071.143zm-.287.793c.095 0 .143-.047.143-.144 0-.096-.048-.145-.143-.145-.049 0-.072.049-.072.145 0 .097.023.144.072.144zm10.367-26.855c.433-.096.732-.157.9-.182.168-.023.396-.227.684-.611l1.368.793h.216l.576-.289c.096.529.407.949.937 1.259.527.313.887.66 1.08 1.045l.359-.289.145.289c0 .24-.085.492-.252.756-.169.264-.252.588-.252.971.239-.383.383-.658.431-.826.047-.168.312-.252.792-.252.289 0 .577.023.865.07.288.049.576.072.863.072.096.289.24.432.433.432.095 0 .191-.01.288-.035.095-.024.191-.035.288-.035.239 0 .371.156.395.466.024.313.036.541.036.684h.361c.239 0 .359.17.359.504-.863.818-1.62 1.728-2.267 2.736-.649 1.008-1.189 2.065-1.621 3.168h-.143c0-.238.059-.431.18-.576.119-.143.179-.334.179-.576 0-.047-.072-.166-.216-.36-.143-.191-.241-.31-.288-.359l-.143.432-.288-.145-.145.145.145.359h-.145c0 .242-.084.422-.252.541-.169.119-.252.301-.252.539.192 0 .361.098.504.289.145.192.336.24.576.143l.145.648h-.145c-.192 0-.348-.072-.467-.215-.121-.144-.229-.289-.325-.433-.24 0-.421.097-.54.289-.12.191-.179.408-.179.648l.143.36h-.072c-.191 0-.349.107-.468.324-.12.215-.216.457-.288.721-.071.263-.143.527-.216.791-.072.263-.156.468-.252.611l-.143-.287-.576 1.224-.361-.144c0-.145.048-.336.145-.576.095-.241.216-.36.359-.36-.048-.336 0-.695.145-1.08l-.288-.648c-.049.096-.121.277-.216.539-.097.266-.193.541-.288.828-.097.289-.169.553-.216.793-.049.24-.072.408-.072.504l.431 1.367.216-.142.145.287.288-.432v.145c0 .24-.109.408-.325.503-.215.096-.42.143-.612.143-.097 0-.216-.023-.359-.072-.145-.047-.169-.143-.072-.287-.145.144-.216.312-.216.504 0 .193.119.289.359.289l.145-.145h.143c.192.191.288.408.288.648l-.576 1.368-.143-.287.143-.145v-.361l-.143-.143.143-.289h.145v-.143c0-.144-.049-.216-.145-.216-.288 0-.432.24-.432.72 0 .481-.12.768-.36.864.048.097.096.205.145.324.046.121.046.228 0 .324l-.288-.144c-.049.097-.133.3-.252.611-.121.314-.157.517-.109.613l.216.432c0 .096-.071.252-.216.469-.143.214-.288.443-.431.683-.145.24-.289.481-.432.719-.145.242-.217.434-.217.576 0 .049.048.109.145.18.095.072.167.133.215.181l-.503.504v.143l.36.144v.145h-.649c0 .144-.012.336-.036.576-.024.24-.06.492-.107.756-.049.264-.133.492-.253.684-.12.193-.252.287-.396.287-.096.144-.048.265.144.361 0 .48-.097.889-.287 1.225-.098-.049-.205-.096-.324-.145-.121-.047-.229-.047-.325 0-.096.385-.143.695-.143.936.19-.287.287-.551.287-.791l.217.142v.145l-.361 1.297v-.506l-.431.289.143.217v.142l-.143.289-.145-.289v.289c0 .192.096.287.288.287l.145-.287.143.143-.288.793-.143-.289-.145.144-.143-.287-.216.287h-.145l-.143-.144c0 .097-.036.252-.109.468-.072.217-.179.325-.324.325 0-.432.072-.864.216-1.297.145-.432.217-.887.217-1.367-.097 0-.169.025-.217.072-.048.049-.097.072-.144.072-.048-.047-.072-.096-.072-.144v-.145l-.216.145.216.287v.289c0 .385-.084.853-.252 1.404-.169.553-.516.828-1.044.828l.145-.072c.047 0 .071-.072.071-.217l-.071-.359h.216c.095-.479.191-.84.288-1.08l-.288-.145c-.193 0-.373.242-.54.721-.169.48-.252.816-.252 1.008l-.145-.36c0-.48.072-.923.216-1.332.144-.408.264-.828.36-1.259l-.143-.362c-.145.145-.252.362-.324.649-.073.287-.133.576-.18.863-.049.289-.121.553-.217.793-.097.24-.216.359-.359.359v-.935c-.145.049-.252.179-.325.396-.072.215-.132.432-.179.647-.049.216-.097.422-.145.613-.048.191-.143.312-.288.359l-.143-.287c-.145.047-.278.084-.397.108-.12.025-.252.035-.395.035-.385 0-.685-.082-.901-.252-.216-.166-.516-.252-.899-.252h-.217c0-.191-.012-.395-.035-.611-.026-.217-.157-.325-.397-.325l-.215.217-.145-.793.145-.791c-.049-.096-.097-.205-.145-.324-.048-.119-.048-.229 0-.324l.145-.287c0-.241-.013-.516-.037-.828-.024-.313-.108-.565-.252-.758l.289.216c0-.431-.049-.744-.145-.935l.36.144.145-.289v-.214l-.145-.289c0-.336.06-.649.18-.936.119-.289.252-.551.397-.793v.793c.046-.096.095-.18.143-.252.048-.072.072-.156.072-.252l-.072-.432h-.143c0-.384.046-.755.143-1.117.096-.359.264-.658.504-.9l.145.289v-.359c0-.672.131-1.452.395-2.342.264-.887.576-1.811.937-2.772.36-.959.743-1.883 1.152-2.771.407-.889.73-1.645.972-2.268.143-.047.288-.205.431-.469.145-.263.264-.562.361-.9.095-.334.179-.646.252-.935.072-.288.083-.504.036-.649l.288.145.143-.504-.143-.145c.288-.191.563-.562.828-1.115.263-.551.504-1.152.72-1.801.215-.648.42-1.295.612-1.943.19-.649.359-1.141.504-1.477l.288.145c.047-.096.154-.299.323-.612.168-.312.336-.623.504-.937.168-.311.312-.611.433-.899.119-.289.155-.457.107-.503zM.2876 31.68c-.048 0-.072-.023-.072-.072 0-.047.024-.072.072-.072.096 0 .144.025.144.072 0 .049-.048.072-.144.072zm-.288-.289v-.9c0-.311.096-.586.288-.826v.431c0 .336-.024.649-.072.936-.048.287-.12.601-.216.935v-.576z" fill="#FF56CB" mask="url(#b)"/></g></svg>