<svg xmlns="http://www.w3.org/2000/svg" viewBox="0 0 541.9 100.01"><defs><style>.cls-1{fill:#6246ea;}.cls-2{fill:#9d93e5;}.cls-3{fill:#c3c0ed;}</style></defs><title>logo-purple-t</title><g id="Layer_2" data-name="Layer 2"><g id="Layer_1-2" data-name="Layer 1"><path class="cls-1" d="M120.9,50c0-14.62,11.28-25,27.08-25,10.2,0,18.23,4.42,21.75,12.36l-10.92,5.87c-2.62-4.61-6.5-6.68-10.92-6.68-7.13,0-12.73,5-12.73,13.45s5.6,13.44,12.73,13.44c4.42,0,8.3-2,10.92-6.67l10.92,5.95C166.21,70.49,158.18,75,148,75c-15.8,0-27.08-10.38-27.08-25m92,0c0-8.4-5.32-13.45-12.37-13.45s-12.45,5-12.45,13.45,5.42,13.44,12.45,13.44S212.91,58.4,212.91,50m-39.08,0c0-14.62,11.28-25,26.72-25s26.62,10.38,26.62,25S216,75,200.55,75s-26.72-10.38-26.72-25M375.91,25c-7.31,0-13.63,3-17.51,7.94-3.43-5.33-9.21-7.94-16-7.94-6.22,0-11.64,2.16-15.25,6.31V25.73H314c4.84,4.79,7.54,11.9,7.54,20.76V74.28h6.28V49.92c0-8.67,4.43-12.73,10.65-12.73,5.87,0,9.21,3.61,9.21,11.46V74.28h14.08V49.92c0-8.67,4.42-12.73,10.74-12.73,5.68,0,9.2,3.61,9.2,11.46V74.28h14.08V46.49c0-14.8-8.3-21.48-19.85-21.48M315.36,46.49V74.28H301.28V48.65c0-7.85-3.52-11.46-9.2-11.46-6.32,0-10.74,4.06-10.74,12.73V74.28H267.26V48.65c0-7.85-3.34-11.46-9.21-11.46-6.22,0-10.65,4.06-10.65,12.73V74.28H233.32V25.73h13.45v5.59c3.61-4.15,9-6.31,15.25-6.31,6.77,0,12.55,2.61,16,7.94,3.88-5,10.2-7.94,17.51-7.94,11.55,0,19.85,6.68,19.85,21.48m86.8,23.28,4.69-10.11a33.2,33.2,0,0,0,16.88,4.7c6.5,0,8.93-1.72,8.93-4.43,0-7.94-29.33.18-29.33-19.22,0-9.21,8.3-15.7,22.47-15.7,6.68,0,14.08,1.53,18.69,4.24l-4.7,10a27.83,27.83,0,0,0-14-3.61c-6.31,0-9,2-9,4.51,0,8.3,29.33.27,29.33,19.4,0,9-8.39,15.44-22.92,15.44-8.22,0-16.52-2.26-21-5.24M491.34,50c0-8.4-5.32-13.45-12.36-13.45s-12.46,5-12.46,13.45S471.94,63.45,479,63.45,491.34,58.4,491.34,50m-39.08,0c0-14.62,11.29-25,26.72-25S505.6,35.39,505.6,50,494.41,75,479,75s-26.72-10.38-26.72-25M541.9,25V38c-1.17-.09-2.08-.18-3.16-.18-7.76,0-12.9,4.24-12.9,13.54V74.28H511.76V25.73h13.45v6.41c3.42-4.7,9.2-7.13,16.69-7.13"/><path class="cls-1" d="M59.94,67.33a20,20,0,1,1-7.29-37.12L59,6.51A5,5,0,0,0,54.64.23,50,50,0,1,0,95.39,70.85a5,5,0,0,0-3.25-6.95l-23.7-6.35A19.93,19.93,0,0,1,59.94,67.33Z"/><path class="cls-2" d="M68.44,42.46l23.69-6.35a5,5,0,0,0,3.26-6.92C94.74,27.77,94,26.38,93.24,25s-1.65-2.69-2.55-4a5,5,0,0,0-7.62-.64L65.73,37.75A21.3,21.3,0,0,1,67.26,40,19,19,0,0,1,68.44,42.46Z"/><path class="cls-3" d="M99.7,54.69a49.5,49.5,0,0,0,0-9.35,5,5,0,0,0-6.28-4.4L69.73,47.29a20.15,20.15,0,0,1,0,5.43l23.69,6.35A5,5,0,0,0,99.7,54.69Z"/><path class="cls-3" d="M63.83,7.81l-6.35,23.7a19.79,19.79,0,0,1,4.71,2.71L79.53,16.88a5,5,0,0,0-.67-7.64,49.49,49.49,0,0,0-8.09-4.67A5,5,0,0,0,63.83,7.81Z"/></g></g></svg>